<?xml version="1.0" standalone="no"?>
<!DOCTYPE svg PUBLIC "-//W3C//DTD SVG 20010904//EN"
 "http://www.w3.org/TR/2001/REC-SVG-20010904/DTD/svg10.dtd">
<svg version="1.0" xmlns="http://www.w3.org/2000/svg"
 width="628.000000pt" height="628.000000pt" viewBox="0 0 628.000000 628.000000"
 preserveAspectRatio="xMidYMid meet">

<g transform="translate(0.000000,628.000000) scale(0.100000,-0.100000)"
fill="#000000" stroke="none">
<path d="M3211 5879 c-35 -12 -81 -32 -102 -45 -21 -13 -50 -24 -64 -24 -16 0
-25 -6 -25 -15 0 -8 -4 -15 -10 -15 -5 0 -10 -7 -10 -15 0 -11 -8 -13 -31 -8
-30 6 -31 5 -20 -16 9 -16 9 -21 0 -21 -6 0 0 -9 13 -20 14 -11 28 -33 31 -50
8 -37 20 -38 35 -4 9 19 9 30 0 47 -16 28 -20 67 -7 67 5 0 9 9 9 20 0 11 6
20 14 20 12 0 12 -5 -1 -31 -12 -23 -13 -39 -7 -58 14 -39 38 -33 42 10 2 23
12 45 27 59 30 28 39 22 25 -14 l-10 -27 30 18 c17 9 30 21 30 25 0 13 61 40
99 43 50 4 129 -12 147 -30 9 -8 22 -15 29 -15 25 0 40 -87 30 -174 l-6 -64
-312 5 c-172 3 -309 2 -305 -2 3 -3 143 -9 310 -12 166 -3 305 -7 307 -9 4 -4
-13 -91 -23 -115 -9 -22 25 -35 39 -16 6 8 17 43 25 78 8 35 16 56 18 47 4
-22 9 -22 30 -1 15 14 39 15 232 10 118 -4 248 -7 288 -7 60 0 74 -3 78 -17 3
-10 9 -25 14 -35 5 -9 12 -40 15 -70 4 -41 3 -48 -5 -30 -13 31 -26 21 -33
-24 -4 -21 -21 -66 -38 -101 -27 -53 -41 -69 -83 -94 -28 -16 -62 -29 -76 -29
-20 0 -22 2 -10 10 13 9 12 12 -4 25 -10 8 -23 12 -27 9 -19 -11 -30 8 -12 22
10 7 14 14 8 14 -5 0 -4 4 3 8 12 8 7 42 -7 42 -3 0 -17 -9 -31 -20 -22 -17
-23 -22 -12 -40 10 -16 10 -20 0 -20 -9 0 -14 -17 -15 -47 0 -27 -4 -65 -8
-87 -5 -28 -4 -41 6 -47 9 -6 10 -12 4 -16 -21 -16 -34 -64 -36 -133 -2 -76
-3 -77 -59 -59 -19 6 -53 15 -75 19 -69 15 -128 31 -144 40 -13 7 -11 10 12
19 31 12 33 19 12 47 -12 16 -14 17 -15 3 0 -9 -7 -19 -15 -23 -8 -3 -15 -15
-15 -26 0 -19 -4 -21 -31 -15 -17 4 -37 8 -43 9 -6 2 -31 8 -55 15 -46 13 -71
9 -71 -11 0 -10 -22 -13 -86 -12 -47 1 -88 5 -91 8 -10 10 -198 7 -209 -3 -5
-5 -61 -12 -124 -16 -63 -4 -145 -8 -183 -10 -37 -2 -71 -6 -75 -8 -4 -2 -47
-12 -97 -22 -49 -10 -117 -31 -149 -47 -67 -32 -77 -27 -70 31 2 20 1 28 -2
18 -3 -10 -11 -16 -17 -14 -14 4 -21 197 -7 197 6 0 10 42 10 100 0 55 -4 100
-9 100 -10 0 -81 66 -81 75 0 11 28 4 40 -10 20 -24 33 -6 15 22 -9 13 -14 31
-11 39 3 8 1 14 -5 14 -5 0 -12 -7 -15 -15 -8 -19 -34 -20 -34 -1 0 21 -21 31
-30 16 -6 -9 -23 3 -60 39 -53 52 -53 52 -73 33 -14 -14 -17 -26 -12 -39 7
-16 8 -15 14 6 4 14 11 26 16 27 10 3 84 -84 104 -123 11 -21 10 -23 -17 -23
-15 0 -33 5 -40 12 -9 9 -12 9 -13 -3 -1 -7 -4 -3 -8 10 -4 15 -17 27 -33 32
-40 11 -75 49 -88 97 -6 23 -9 46 -6 51 3 4 7 23 10 42 7 51 34 120 54 136 24
18 120 63 136 63 15 0 29 27 21 40 -6 10 -71 -7 -102 -27 -21 -14 -23 -14 -17
0 3 9 31 26 62 37 78 29 215 22 276 -15 22 -13 55 -32 72 -41 18 -9 38 -32 48
-54 32 -74 47 -70 -248 -70 -146 0 -267 -3 -269 -7 -6 -9 922 -7 931 2 3 3
-75 5 -174 5 l-179 0 -2 40 c-2 26 2 43 10 46 8 3 12 16 9 33 -7 52 97 114
229 136 31 5 38 3 42 -12 4 -17 5 -17 6 1 1 15 6 17 27 12 35 -9 72 -36 79
-58 10 -29 34 -21 33 11 -1 22 -10 34 -41 55 -53 34 -91 40 -163 26 -32 -7
-72 -14 -89 -17 -32 -5 -97 -36 -128 -62 -10 -9 -25 -31 -32 -49 l-15 -33 -32
24 c-49 36 -123 58 -221 64 -138 9 -257 -26 -257 -75 0 -10 -20 -29 -44 -44
-24 -14 -49 -40 -57 -57 -15 -34 -26 -41 -84 -48 -58 -7 -56 -13 3 -13 49 0
51 -1 50 -28 -1 -15 2 -38 6 -52 6 -20 5 -22 -4 -10 -18 23 -4 -74 14 -103 8
-12 18 -38 21 -59 7 -37 37 -78 57 -78 6 0 19 -6 27 -14 13 -11 98 -42 161
-59 11 -3 21 -52 41 -217 14 -117 24 -224 21 -237 l-4 -23 -502 -1 c-275 -1
-504 -1 -508 0 -5 0 -8 -2 -8 -6 0 -5 210 -7 467 -7 258 1 487 -1 510 -3 36
-4 40 -7 32 -21 -12 -21 -70 -238 -72 -272 -1 -14 -8 -31 -14 -38 -16 -16 -17
-39 -2 -47 14 -10 22 1 25 33 7 67 15 101 34 147 8 18 31 96 35 120 5 28 8 28
14 0 4 -16 4 -44 0 -62 -4 -17 -3 -35 2 -40 13 -13 20 -83 10 -102 -7 -12 -4
-24 10 -41 22 -30 24 -40 6 -40 -8 0 -22 -9 -32 -20 -10 -11 -13 -20 -7 -20
18 0 15 -70 -3 -76 -8 -4 -15 -10 -15 -16 0 -5 5 -6 11 -2 17 10 1 -50 -34
-128 -20 -47 -35 -68 -47 -68 -18 0 -20 -6 -40 -95 -5 -22 -12 -48 -15 -57 -4
-10 -3 -18 3 -18 6 0 13 14 17 30 4 17 11 27 16 24 6 -3 17 0 26 8 14 11 15
11 10 -2 -4 -8 -10 -23 -13 -32 -4 -10 -12 -18 -19 -18 -7 0 -15 -6 -17 -12
-4 -10 -226 -12 -1024 -11 -560 2 -1015 1 -1009 -2 6 -2 455 -5 998 -8 543 -2
990 -7 993 -10 12 -12 11 -63 -2 -88 -10 -20 -10 -29 -1 -38 9 -9 9 -14 0 -19
-13 -8 -6 -52 8 -52 5 0 9 -6 9 -14 0 -7 6 -19 14 -25 12 -10 12 -16 -2 -41
-14 -25 -15 -33 -4 -47 7 -10 24 -43 38 -73 14 -30 30 -64 36 -75 6 -11 17
-38 23 -60 7 -24 21 -45 35 -52 28 -14 40 -32 33 -50 -3 -7 0 -13 6 -13 6 0
11 -9 11 -21 0 -11 4 -18 9 -15 5 3 20 -9 34 -27 14 -17 37 -45 51 -62 14 -16
27 -33 27 -37 1 -5 2 -12 3 -17 0 -5 4 -13 9 -17 4 -4 7 -11 7 -16 0 -12 -178
-10 -185 2 -3 6 4 10 17 11 22 0 22 1 3 9 -15 6 -16 9 -4 9 20 1 63 37 52 44
-35 19 -62 15 -103 -16 -24 -17 -52 -39 -63 -47 -24 -17 -294 -17 -1222 0
-275 5 -576 9 -670 8 -216 -2 176 -12 915 -23 278 -4 525 -9 550 -9 25 -1 116
-3 203 -4 86 -1 157 -6 157 -11 0 -5 -13 -14 -30 -21 -16 -7 -30 -18 -30 -24
-1 -6 -15 -20 -33 -31 -18 -11 -32 -25 -32 -30 -1 -6 -16 -32 -35 -58 -43 -60
-54 -94 -33 -105 13 -8 13 -13 -2 -42 -15 -30 -16 -43 -6 -116 13 -90 38 -174
52 -174 15 0 10 -42 -8 -62 -9 -10 -11 -18 -5 -18 6 0 13 6 16 13 2 6 3 1 2
-12 -2 -14 -7 -26 -13 -28 -13 -5 4 -115 20 -126 23 -16 -1483 17 -1655 37
-21 2 -38 0 -38 -5 0 -5 35 -9 78 -9 42 0 158 -4 257 -10 161 -8 427 -17 1120
-35 120 -4 223 -9 227 -11 5 -3 6 -10 3 -15 -4 -5 -2 -9 3 -9 5 0 9 -17 10
-37 0 -47 4 -66 17 -76 6 -6 6 -10 -2 -14 -9 -3 -10 -10 -3 -22 5 -10 6 -22 2
-26 -4 -5 1 -5 11 -2 20 7 20 6 7 -27 -6 -16 -6 -27 0 -31 6 -4 10 -17 10 -30
0 -13 12 -46 27 -72 15 -26 32 -58 38 -70 15 -28 78 -104 130 -156 36 -37 135
-107 150 -107 14 0 35 -29 25 -35 -6 -4 -7 -12 -4 -18 4 -7 4 -9 -1 -5 -4 4
-14 0 -21 -10 -12 -16 -13 -15 -22 8 -8 19 -7 28 4 36 13 10 12 13 -2 18 -17
6 -34 -8 -34 -29 0 -5 15 -24 33 -43 18 -20 27 -36 21 -39 -7 -2 -9 -13 -7
-24 6 -23 45 -22 -622 -4 -240 7 -673 24 -745 30 -93 7 -346 15 -335 11 9 -4
253 -20 475 -31 52 -3 140 -7 195 -10 170 -9 701 -25 873 -26 l162 -1 0 -24
c0 -13 5 -24 12 -24 7 0 4 -6 -5 -13 -11 -8 -15 -20 -11 -34 6 -21 12 -23 79
-23 40 0 110 7 154 15 69 14 98 14 183 4 93 -11 105 -10 135 7 27 14 33 22 29
40 -6 21 -5 21 32 9 20 -7 39 -9 42 -5 6 10 97 16 106 7 4 -4 19 -7 34 -7 19
0 30 -7 38 -24 15 -35 85 -45 217 -33 55 5 85 17 85 33 0 8 5 14 10 14 6 0 10
-6 10 -14 0 -19 39 -46 56 -39 8 3 21 -1 30 -8 9 -7 25 -18 36 -24 11 -5 27
-23 36 -40 19 -33 50 -64 99 -98 23 -15 38 -37 49 -72 8 -27 19 -59 24 -70 15
-35 21 -93 10 -100 -17 -11 -11 -60 11 -83 23 -25 18 -42 -13 -42 -35 0 -97
-22 -113 -40 -9 -10 -20 -31 -25 -49 -7 -26 -5 -36 14 -58 20 -23 32 -27 98
-30 56 -4 84 -1 106 11 17 9 40 16 50 16 18 0 32 18 32 41 0 13 -44 11 -58 -3
-6 -6 -14 -9 -18 -6 -3 4 8 14 25 23 17 8 31 22 31 30 0 18 21 20 37 4 14 -14
25 3 17 26 -5 13 -15 16 -40 12 -39 -7 -43 4 -13 34 17 17 19 25 11 47 -6 15
-18 54 -27 87 -10 33 -19 66 -21 74 -3 8 -12 11 -28 7 -27 -7 -45 18 -20 28 8
3 14 12 14 20 0 8 11 28 25 44 14 16 26 39 28 51 2 12 8 26 15 33 7 7 8 17 3
27 -11 21 -16 62 -8 81 3 8 13 37 23 64 l18 49 400 -7 c385 -6 1799 -8 1861
-2 17 2 49 4 73 4 23 1 42 5 42 10 0 4 -531 7 -1179 7 -649 0 -1182 3 -1185 6
-3 3 4 25 16 50 12 24 23 55 25 69 2 14 11 40 19 58 8 18 13 36 9 41 -7 12 5
41 17 41 5 0 8 -6 6 -13 -2 -7 2 -13 7 -14 6 -1 9 12 7 28 -1 17 2 28 7 25 5
-3 7 3 4 13 -3 13 11 36 49 75 52 54 120 97 248 157 36 17 72 36 80 43 8 6 33
18 55 25 48 16 101 38 137 57 14 8 33 14 42 14 9 0 16 5 16 10 0 6 10 10 23
10 35 1 62 46 59 102 -2 44 0 48 20 49 13 0 232 -1 488 -2 974 -4 1030 -3
1030 11 0 7 -261 10 -762 10 l-763 0 -20 63 c-10 34 -18 70 -17 79 2 12 -19
32 -66 62 -37 25 -75 52 -82 61 -9 11 -22 14 -37 10 -19 -4 -32 3 -64 36 -21
22 -37 44 -34 49 2 4 -6 29 -20 54 -14 26 -25 53 -25 60 0 8 -7 19 -15 26 -8
7 -15 20 -15 30 0 21 -36 64 -44 52 -3 -5 2 -20 12 -33 10 -13 26 -44 36 -69
10 -25 22 -50 28 -57 5 -7 7 -17 4 -22 -4 -5 -2 -12 4 -16 6 -4 8 -10 5 -15
-3 -5 -1 -11 5 -15 21 -13 0 -22 -37 -16 -36 6 -38 8 -41 46 -3 49 -28 136
-47 161 -7 11 -21 19 -31 19 -9 0 -22 9 -28 19 -40 70 -176 226 -196 226 -9 0
-30 32 -30 46 0 6 477 4 1898 -8 301 -2 382 0 382 10 0 9 -112 12 -522 13
-288 0 -575 2 -638 3 -63 2 -343 4 -621 5 l-506 2 -23 25 c-13 13 -29 24 -36
24 -7 0 -15 9 -19 19 -3 11 -12 18 -19 15 -7 -3 -27 6 -44 20 -16 15 -40 26
-52 26 l-21 0 22 31 c12 17 29 33 37 37 21 7 61 53 62 69 0 22 -21 25 -27 4
-3 -12 -9 -21 -14 -21 -4 0 -25 -16 -46 -35 -42 -38 -53 -43 -53 -20 0 8 9 15
21 15 11 0 18 4 14 9 -3 5 7 19 21 30 30 24 24 42 -7 23 -19 -12 -20 -11 -17
15 2 16 8 27 16 25 6 -1 12 2 12 8 0 10 52 40 70 40 5 0 10 -7 10 -15 0 -18
12 -19 28 -3 32 32 0 51 -55 34 -18 -5 -36 -6 -39 -3 -12 11 16 35 35 30 14
-4 22 8 39 59 12 35 25 92 28 126 4 35 11 65 16 68 5 3 2 15 -8 25 -11 13 -18
39 -20 78 -1 33 -5 69 -9 80 -4 14 -2 21 7 22 7 0 258 0 558 0 522 -1 905 -5
1518 -16 170 -4 282 -2 282 4 0 17 -764 30 -1851 31 l-517 0 -5 28 c-16 76
-33 138 -41 150 -4 7 -5 16 -1 20 4 4 10 2 12 -5 2 -6 13 -22 24 -34 13 -15
18 -31 14 -46 -5 -22 -5 -23 15 -6 27 23 25 45 -5 73 -24 22 -24 25 -9 47 12
19 13 27 3 39 -26 31 -45 13 -41 -38 1 -10 -2 -18 -7 -18 -13 0 -18 79 -8 127
5 28 5 49 -3 62 -9 18 -7 23 12 32 22 9 23 14 21 111 -1 55 -4 103 -7 105 -2
2 -2 16 0 31 2 15 8 64 13 110 5 46 12 86 15 90 9 8 623 3 1426 -13 259 -5
352 -8 748 -21 138 -5 192 -3 192 5 0 6 -18 11 -42 11 -24 0 -97 2 -163 4 -66
3 -228 7 -360 10 -132 4 -323 8 -425 11 -102 3 -453 8 -780 11 -327 3 -599 8
-603 11 -4 3 -5 14 -1 26 4 12 8 33 10 47 1 13 5 47 8 75 4 27 14 94 24 149
l17 98 50 25 c28 14 55 34 62 43 7 10 33 27 59 39 40 19 44 24 30 34 -16 11
-15 14 8 35 32 27 70 106 62 127 -3 9 -2 13 4 10 21 -13 26 112 5 158 -7 17 1
18 161 13 93 -4 244 -8 337 -11 440 -13 518 -16 602 -20 50 -3 151 -7 225 -10
74 -3 263 -12 420 -20 157 -7 287 -11 289 -9 2 2 2 6 -1 9 -5 6 -279 20 -658
35 -665 26 -774 30 -1065 36 l-310 7 -30 25 c-31 26 -52 74 -35 80 6 2 -1 17
-15 34 -14 16 -25 34 -25 39 0 5 -11 9 -25 9 -30 0 -31 -9 -5 -38 29 -31 3
-29 -40 3 -31 23 -32 25 -11 25 l22 0 -20 29 c-30 42 -117 64 -202 52 -95 -13
-197 -54 -241 -96 l-28 -25 -32 62 c-18 35 -36 71 -40 81 -4 9 -16 17 -26 17
-11 0 -39 7 -63 16 -24 9 -57 18 -74 21 -16 3 -37 11 -46 19 -19 17 -20 17
-98 -7z m740 -169 c44 -21 44 -21 9 -15 l-35 6 28 -15 c15 -8 34 -13 42 -9 8
3 15 0 15 -7 0 -6 5 -8 10 -5 9 6 14 -8 11 -27 0 -5 4 -8 10 -8 6 0 9 7 5 15
-10 26 6 17 51 -31 59 -63 58 -79 -10 -78 -28 1 -150 2 -269 3 -201 1 -218 2
-218 19 0 20 42 62 61 62 8 0 20 4 28 9 12 8 13 12 1 25 -17 21 -9 28 37 31
21 1 52 9 69 18 17 9 36 12 43 7 8 -4 25 -2 40 6 32 17 21 18 72 -6z m-402
-82 c1 -10 -2 -18 -6 -18 -5 0 -9 17 -10 38 -1 28 0 32 7 17 5 -11 9 -28 9
-37z m131 22 c0 -11 -42 -31 -49 -24 -2 2 2 10 9 19 14 17 40 20 40 5z m-60
-27 c-1 -14 -30 -47 -36 -41 -8 8 14 48 26 48 6 0 10 -3 10 -7z m-49 -58 c0
-19 -29 -16 -34 4 -4 16 -1 18 15 12 11 -4 19 -11 19 -16z m639 -26 c0 -6 -4
-7 -10 -4 -5 3 -10 11 -10 16 0 6 5 7 10 4 6 -3 10 -11 10 -16z m-2240 -298
c0 -5 8 -11 18 -15 55 -20 71 -23 74 -15 2 4 14 -1 28 -11 l25 -20 -42 0 c-24
0 -62 10 -87 22 -50 24 -67 48 -36 48 11 0 20 -4 20 -9z m230 -77 c0 -8 -5
-12 -10 -9 -6 4 -8 11 -5 16 9 14 15 11 15 -7z m10 -64 c0 -5 -5 -10 -11 -10
-5 0 -7 5 -4 10 3 6 8 10 11 10 2 0 4 -4 4 -10z m1796 -30 c-48 -19 -94 -21
-89 -5 2 4 22 9 45 12 23 2 44 5 46 8 3 3 15 5 26 5 12 -1 0 -9 -28 -20z
m-736 -305 c52 -9 127 -20 165 -25 106 -15 166 -31 158 -43 -4 -6 -1 -7 6 -2
15 9 101 -14 101 -27 0 -6 -7 -7 -16 -4 -8 3 -12 2 -9 -4 16 -25 -56 -31 -315
-26 -146 3 -421 6 -613 7 -191 1 -350 5 -352 9 -7 11 71 63 115 78 22 8 37 9
45 2 9 -8 14 -5 18 9 5 22 35 28 197 36 63 3 117 8 119 11 9 9 288 -6 381 -21z
m277 8 c3 -7 -4 -9 -16 -6 -12 3 -18 9 -15 15 7 11 26 6 31 -9z m227 -44 c27
-12 47 -45 22 -36 -8 3 -33 11 -57 18 -39 12 -41 14 -18 20 13 4 25 7 26 8 1
1 13 -4 27 -10z m126 -20 c0 -11 -4 -18 -10 -14 -5 3 -7 12 -3 20 7 21 13 19
13 -6z m-185 -69 c3 -5 -1 -10 -9 -10 -9 0 -16 5 -16 10 0 6 4 10 9 10 6 0 13
-4 16 -10z m-810 -59 l60 -43 -47 5 c-26 2 -45 1 -43 -3 6 -9 -13 -14 -120
-31 -38 -6 -90 -20 -115 -31 -46 -21 -220 -62 -228 -53 -2 2 19 19 47 36 28
18 51 36 51 41 0 5 -3 8 -7 6 -50 -24 -70 -35 -83 -48 -52 -48 -76 -60 -105
-54 -31 6 -70 34 -47 34 7 0 12 -5 12 -12 0 -7 5 -5 13 5 6 9 23 21 37 27 23
9 21 10 -14 7 -44 -2 -48 3 -50 91 -1 37 3 56 14 62 9 6 124 9 290 8 l275 -3
60 -44z m809 27 c24 -6 49 -20 55 -31 7 -10 8 -17 4 -14 -5 3 -17 -8 -27 -24
-18 -30 -18 -31 0 -27 11 2 19 9 19 16 0 6 5 11 10 10 6 -2 9 -6 8 -10 -2 -5
5 -8 15 -8 14 0 15 -2 2 -9 -8 -6 -18 -7 -22 -5 -4 3 -8 -4 -8 -15 0 -10 5
-21 11 -23 6 -2 8 -14 3 -32 -4 -19 -9 -24 -14 -15 -5 7 -7 -16 -6 -50 1 -34
-2 -65 -6 -67 -8 -5 -64 21 -70 33 -7 18 -70 63 -79 57 -6 -3 -16 0 -24 6 -8
7 -22 10 -30 6 -9 -3 -15 0 -15 9 0 8 -8 15 -18 15 -10 0 -22 4 -28 9 -5 5
-18 11 -29 13 -11 1 -26 8 -32 15 -7 6 -21 9 -31 6 -11 -2 -27 3 -36 12 -9 10
-20 15 -23 12 -3 -3 -12 0 -20 8 -9 10 -34 15 -67 15 -39 0 -62 6 -87 23 -63
43 -63 42 -55 13 6 -24 4 -26 -29 -26 -45 0 -89 19 -139 59 l-39 31 381 0
c260 0 396 -4 426 -12z m-773 -162 c4 -4 27 -7 53 -5 25 2 46 1 46 -3 0 -12
68 -9 76 3 3 6 -1 10 -12 9 -11 -1 -28 -1 -39 0 -28 3 29 17 78 19 43 1 51
-16 10 -21 -16 -2 2 -4 38 -4 71 1 119 -17 119 -44 0 -9 -3 -20 -7 -24 -4 -3
-12 -23 -19 -43 -13 -35 -12 -37 23 -70 27 -24 53 -36 95 -44 38 -8 66 -20 81
-35 24 -26 48 -30 75 -13 14 9 25 8 50 -5 17 -9 37 -16 45 -16 29 0 37 -21 21
-59 -11 -25 -13 -51 -8 -86 6 -50 38 -130 55 -141 5 -3 9 -34 9 -70 l0 -64
-170 3 c-125 1 -170 5 -170 14 0 15 -37 36 -50 28 -6 -3 -10 -13 -10 -21 0 -8
-10 -14 -23 -14 -17 0 -23 6 -25 25 -2 34 -25 75 -52 98 -22 19 -23 18 -43 -2
l-21 -21 26 -27 c14 -16 29 -38 33 -50 l6 -23 -230 0 c-137 0 -231 4 -231 9 0
30 21 61 42 61 17 0 19 3 10 12 -7 7 -20 13 -29 13 -9 0 -18 6 -20 13 -3 6 2
12 11 12 9 0 16 5 16 10 0 13 -31 13 -64 0 -22 -8 -25 -16 -28 -67 l-3 -58
-52 -2 c-29 -1 -53 0 -53 3 0 2 7 16 16 29 19 29 12 55 -14 55 -20 0 -65 -44
-75 -72 -4 -12 -14 -17 -29 -14 -13 3 -83 5 -157 5 l-134 1 5 38 c3 21 26 79
51 130 56 113 90 213 90 263 0 39 12 49 64 49 12 0 23 4 25 10 2 5 13 11 25
13 12 2 26 6 29 10 4 4 13 2 20 -4 16 -13 54 5 54 25 0 9 14 13 43 13 58 0
148 25 160 45 17 26 -6 65 -42 73 -17 4 -31 10 -31 15 0 11 90 30 145 30 24 0
47 5 50 10 7 11 30 -2 46 -24z m-284 -52 c-3 -3 -12 -4 -19 -1 -8 3 -5 6 6 6
11 1 17 -2 13 -5z m-72 -14 c3 -5 0 -10 -8 -10 -8 0 -22 -11 -31 -25 -9 -14
-25 -25 -36 -25 -10 0 -22 -4 -25 -10 -3 -5 -13 -10 -22 -10 -13 0 -14 2 -2
17 13 17 12 17 -13 0 -28 -17 -28 -17 -28 8 0 14 6 25 13 25 6 0 22 3 35 6 13
4 22 3 20 -2 -5 -14 15 -13 42 2 14 7 21 13 15 14 -5 0 -3 5 5 10 19 12 27 12
35 0z m108 -19 c4 -4 -24 -12 -63 -17 l-69 -10 21 23 c18 19 28 22 62 17 23
-4 44 -10 49 -13z m707 -21 c12 -7 16 -17 13 -31 -7 -26 11 -39 54 -39 30 0
63 -21 63 -41 0 -11 9 -13 -89 20 -46 16 -91 36 -100 45 -15 16 -14 18 9 36
30 23 27 23 50 10z m-1119 -49 c-12 -8 -12 -25 -2 -100 1 -2 8 0 17 3 13 5 14
1 9 -27 -11 -56 -46 -141 -65 -162 -21 -22 -70 -181 -70 -227 0 -26 -3 -29
-26 -26 -23 3 -27 8 -28 46 -2 29 3 48 16 62 13 13 16 28 12 45 -4 16 1 41 14
68 11 23 25 61 32 84 7 23 16 40 20 38 12 -8 42 114 35 145 -5 21 -1 33 16 49
12 11 25 18 28 15 3 -3 -1 -9 -8 -13z m109 5 c0 -4 -59 -36 -67 -36 -2 0 1 9
7 20 9 17 60 30 60 16z m1340 -36 c10 -14 16 -16 21 -8 10 16 31 -36 23 -57
-4 -8 -14 -15 -24 -15 -20 0 -32 23 -24 43 3 8 -2 20 -11 27 -16 13 -20 30 -7
30 4 0 14 -9 22 -20z m-160 -12 c0 -13 -23 -5 -28 10 -2 7 2 10 12 6 9 -3 16
-11 16 -16z m65 -36 c-3 -3 -11 0 -18 7 -9 10 -8 11 6 5 10 -3 15 -9 12 -12z
m135 -104 c0 -6 9 -8 20 -5 18 5 20 0 20 -48 0 -30 -5 -57 -11 -61 -6 -3 -9
-17 -6 -30 2 -14 1 -27 -4 -29 -11 -7 -59 65 -59 87 0 10 -4 18 -9 18 -10 0
-5 34 11 67 10 21 38 22 38 1z m28 -207 c3 -8 -1 -12 -9 -9 -7 2 -15 10 -17
17 -3 8 1 12 9 9 7 -2 15 -10 17 -17z m15 -58 c-5 -12 -23 -19 -23 -9 0 2 -3
12 -7 22 -4 12 -3 15 5 10 7 -4 12 -2 12 6 0 10 2 10 9 -1 5 -8 7 -20 4 -28z
m31 -91 c9 -14 -21 -29 -33 -16 -5 5 -12 26 -15 46 -5 30 -4 37 11 40 13 3 19
-5 24 -27 3 -17 9 -36 13 -43z m-1665 -63 c12 -54 26 -85 48 -107 7 -7 13 -19
13 -25 0 -8 -4 -7 -12 1 -7 7 -19 12 -27 11 -11 0 -12 -2 -3 -6 10 -4 10 -8 1
-19 -10 -12 1 -27 60 -81 l72 -66 -33 -19 c-18 -11 -39 -27 -45 -36 -18 -22
-16 -72 4 -94 15 -17 15 -18 -5 -18 -11 0 -27 -7 -35 -15 -13 -13 -16 -13 -21
0 -3 8 -1 15 5 15 6 0 2 16 -10 36 -12 19 -21 46 -21 59 0 30 -10 56 -20 50
-13 -8 -40 94 -33 127 5 28 4 31 -14 26 -17 -5 -23 4 -40 53 -12 34 -17 63
-12 71 9 13 10 11 13 -24 0 -10 5 -17 11 -15 5 1 8 14 7 28 -2 15 4 34 13 43
9 9 12 16 6 16 -18 0 -12 28 7 33 52 14 60 9 71 -44z m235 41 l98 0 -4 -30
c-3 -19 0 -31 10 -35 8 -3 16 -4 17 -3 45 69 43 68 111 68 59 0 65 -2 74 -24
5 -13 14 -27 19 -31 21 -12 11 -25 -41 -51 -29 -15 -66 -36 -82 -47 -16 -11
-51 -31 -78 -45 l-49 -24 -87 17 c-77 15 -90 21 -119 53 -18 21 -40 61 -49 91
-19 63 -11 75 46 66 19 -2 79 -5 134 -5z m701 -10 l110 -1 -38 -20 c-21 -11
-41 -27 -44 -34 -3 -8 -15 -15 -27 -15 -11 0 -40 -9 -63 -20 -38 -17 -44 -17
-58 -4 -8 9 -39 18 -68 20 -82 7 -107 13 -123 29 -8 8 -12 19 -9 25 3 5 -1 10
-9 10 -9 0 -16 5 -16 11 0 7 36 9 118 5 64 -3 167 -6 227 -6z m225 -24 c0 -30
24 -56 52 -56 18 0 20 5 15 40 l-5 40 164 0 c90 0 164 -3 164 -7 -1 -35 -43
-160 -59 -177 -12 -13 -18 -26 -14 -30 5 -4 -4 -5 -19 -1 -21 5 -29 2 -38 -14
-14 -26 -35 -27 -57 -2 -13 15 -21 18 -35 10 -15 -8 -29 -4 -63 18 -24 15 -44
33 -45 38 0 6 -10 17 -22 25 -29 19 -70 31 -62 19 7 -12 -3 -11 -27 1 -10 6
-19 18 -19 26 0 8 -4 12 -10 9 -18 -11 -10 25 12 55 28 38 68 41 68 6z m500
14 c8 -5 10 -10 4 -10 -6 0 -9 -13 -6 -30 2 -16 8 -28 12 -25 4 3 8 -14 9 -38
5 -151 -2 -176 -63 -229 -26 -22 -29 -28 -17 -40 8 -8 15 -9 17 -3 3 6 9 17
14 25 17 26 29 -7 18 -51 -11 -41 -33 -70 -83 -106 -22 -17 -26 -22 -12 -23
19 0 23 -15 7 -25 -14 -9 -12 -55 3 -56 6 0 0 -5 -14 -10 -15 -6 -32 -23 -39
-39 -19 -46 -29 -35 -16 17 8 29 19 49 31 54 19 7 19 8 -1 8 -20 1 -21 6 -19
74 0 39 6 82 13 94 7 12 12 29 12 37 0 16 52 72 73 79 9 3 8 8 -1 20 -8 9 -11
21 -8 26 10 16 -5 61 -20 61 -17 0 -17 5 -1 53 8 20 17 34 20 30 4 -3 7 3 7
15 0 12 4 22 9 22 5 0 12 18 16 40 7 42 11 46 35 30z m-610 -90 c0 -5 -7 -7
-15 -4 -8 4 -15 8 -15 10 0 2 7 4 15 4 8 0 15 -4 15 -10z m-362 -29 c9 -5 39
-15 65 -22 27 -7 52 -20 58 -30 11 -22 29 -25 29 -5 0 8 19 21 41 30 39 16 42
16 54 -1 11 -15 17 -15 39 -5 15 7 35 12 46 12 29 0 181 -75 215 -107 17 -15
50 -37 73 -48 34 -16 41 -25 39 -45 -4 -47 -18 -52 -139 -47 -105 5 -158 15
-200 37 -10 6 -24 7 -32 4 -10 -4 -32 12 -61 43 -51 54 -86 64 -109 31 -8 -11
-19 -17 -26 -13 -7 4 -23 -4 -38 -18 -38 -37 -116 -69 -147 -61 -19 5 -25 2
-25 -11 0 -12 -5 -15 -17 -10 -10 4 -45 8 -79 10 -34 1 -72 9 -85 18 -13 8
-43 20 -66 26 -48 13 -100 50 -70 51 9 0 17 7 17 15 0 10 10 14 33 13 49 -2
164 40 202 73 18 16 37 29 42 29 6 0 18 9 28 20 20 22 81 27 113 11z m1039
-98 c-3 -10 -5 -4 -5 12 0 17 2 24 5 18 2 -7 2 -21 0 -30z m-1808 -51 c1 -12
12 -45 26 -73 16 -30 23 -58 20 -70 -4 -11 -2 -19 5 -19 6 0 8 -5 5 -11 -5 -6
-13 -2 -22 11 -8 12 -13 24 -9 27 7 7 -18 56 -38 72 -9 8 -16 22 -16 32 0 11
-6 19 -14 19 -7 0 -16 9 -19 19 -3 13 -1 18 9 14 7 -2 19 5 26 16 12 19 13 19
20 3 3 -9 7 -27 7 -40z m334 29 c5 0 6 -5 2 -10 -5 -9 -61 1 -72 13 -4 4 44 2
70 -3z m1212 -71 c-3 -5 -11 -10 -16 -10 -6 0 -7 5 -4 10 3 6 11 10 16 10 6 0
7 -4 4 -10z m-611 -70 c39 -30 107 -57 166 -64 94 -12 140 -26 86 -26 -23 0
-25 -2 -14 -13 15 -15 98 -11 98 5 0 6 -8 7 -17 3 -12 -4 -15 -3 -8 4 6 5 45
17 87 25 90 19 98 19 78 6 -13 -9 -13 -11 0 -20 8 -5 11 -10 5 -10 -5 0 5 -8
23 -17 38 -18 54 -9 46 25 -6 22 -24 31 -24 12 0 -5 -7 -7 -15 -4 -14 6 -13 8
2 19 9 7 23 11 30 8 7 -3 13 0 13 6 0 6 4 11 9 11 13 0 19 -59 7 -64 -7 -3 -4
-10 7 -19 17 -14 25 -87 9 -87 -7 0 -11 18 -12 63 -1 23 -25 16 -25 -7 0 -10
-9 -22 -20 -29 -18 -9 -19 -9 -6 6 8 10 11 20 8 23 -10 10 -42 -5 -54 -25 -14
-22 -7 -55 9 -45 13 8 -1 -39 -14 -47 -11 -7 0 -39 14 -39 5 0 1 -14 -9 -31
-18 -30 -18 -30 6 -48 17 -13 22 -23 16 -39 -3 -12 -11 -22 -16 -22 -5 0 -9
-6 -9 -14 0 -20 -126 -20 -134 0 -3 8 -10 14 -15 14 -6 0 -8 -7 -4 -16 6 -15
-29 -16 -413 -10 -230 3 -434 8 -452 10 -41 4 -78 42 -74 74 3 18 -1 23 -15
20 -12 -2 -18 4 -19 20 -1 22 20 31 31 12 3 -5 11 -10 17 -10 5 0 -5 14 -23
32 -22 19 -29 33 -21 35 6 3 12 9 12 14 0 4 -7 6 -15 3 -11 -5 -15 1 -15 19 0
22 4 24 43 24 42 -1 56 15 17 21 -11 2 -20 9 -20 17 0 7 -5 15 -12 17 -18 6
-14 69 7 84 9 7 18 24 18 37 0 23 2 24 36 15 69 -18 171 -34 194 -32 12 2 47
5 77 8 60 5 118 23 166 52 50 30 96 29 138 -6z m-717 -86 c-12 -13 -27 9 -27
39 l0 32 17 -33 c8 -18 13 -35 10 -38z m84 53 c-6 -8 -8 -17 -4 -20 3 -4 1 -7
-5 -7 -13 0 -16 22 -5 33 12 13 25 7 14 -6z m-110 -100 c23 -18 12 -37 -22
-37 -21 0 -29 5 -29 18 0 33 22 41 51 19z m3 -63 c9 -3 16 -17 16 -29 0 -13 4
-25 9 -27 4 -1 12 -13 15 -26 12 -36 -20 -40 -47 -6 -36 46 -45 68 -33 81 13
14 19 15 40 7z m1301 -34 c3 -16 2 -37 -4 -47 -9 -15 -10 -13 -11 14 0 17 -3
38 -6 47 -3 9 -2 16 4 16 6 0 13 -13 17 -30z m-41 -24 c-3 -14 -12 -26 -19
-26 -11 0 -10 6 2 31 18 35 27 33 17 -5z m186 -105 c0 -4 -20 -15 -45 -26 -30
-14 -45 -26 -45 -39 0 -18 1 -18 19 2 18 21 19 22 42 4 13 -10 32 -22 42 -25
39 -14 3 -25 -85 -25 -51 1 -80 3 -65 5 31 5 47 30 28 43 -9 5 -4 14 18 29 17
12 31 19 31 14 0 -4 7 2 15 14 14 20 45 22 45 4z m210 -108 c0 -10 -23 1 -40
19 -31 34 -24 43 10 11 17 -15 30 -29 30 -30z m-1564 -46 c22 -21 51 -46 67
-55 15 -9 27 -22 27 -29 0 -7 6 -13 14 -13 7 0 23 -14 36 -30 13 -17 30 -28
37 -26 7 3 13 0 13 -7 0 -15 46 -51 78 -61 15 -5 22 -15 22 -34 1 -46 56 -92
111 -92 10 0 36 -9 56 -20 21 -11 43 -20 50 -20 14 0 38 -39 26 -41 -4 -1 -12
-2 -18 -4 -5 -1 -14 -3 -20 -4 -5 -1 -3 -6 5 -11 10 -6 15 -27 16 -57 1 -26 5
-109 9 -184 l7 -135 -63 0 c-60 1 -63 2 -70 30 -5 16 -6 33 -3 38 3 4 0 8 -6
8 -7 0 -10 7 -6 15 3 9 0 15 -10 15 -8 0 -13 4 -10 9 3 5 -7 14 -23 21 -49 20
-66 45 -53 76 18 38 15 58 -14 89 -24 26 -29 27 -89 22 -46 -4 -67 -2 -81 8
-11 8 -15 15 -11 15 13 0 -45 50 -58 50 -14 0 -50 38 -59 64 -4 12 0 26 10 38
10 10 18 36 18 61 1 40 0 42 -31 45 -30 3 -33 0 -59 -57 -14 -34 -29 -61 -31
-61 -2 0 -11 6 -18 14 -12 12 -12 16 0 26 8 7 15 19 15 27 0 11 -4 11 -20 3
-14 -7 -20 -7 -20 0 0 5 -4 10 -9 10 -4 0 -6 -11 -3 -25 2 -15 0 -25 -7 -25
-6 0 -11 5 -11 11 0 16 -25 5 -26 -12 -1 -33 20 -66 61 -97 27 -21 49 -31 57
-26 7 4 10 4 6 -1 -13 -13 11 -45 46 -59 32 -13 86 -60 86 -74 0 -4 -9 -18
-20 -32 -11 -14 -20 -29 -20 -35 0 -5 -18 -47 -41 -92 -39 -79 -59 -107 -59
-84 0 6 -11 11 -24 11 -31 0 -79 38 -71 57 4 12 0 14 -15 10 -12 -3 -20 0 -20
8 0 7 -11 23 -25 36 -13 13 -25 28 -25 33 0 5 -8 16 -19 25 -46 41 -107 233
-102 326 2 40 68 208 92 234 11 11 19 28 19 37 0 21 -53 -44 -81 -98 -11 -21
-23 -38 -28 -38 -5 0 -23 -61 -41 -135 -18 -74 -37 -135 -41 -135 -15 0 -20
41 -7 57 11 14 11 16 -3 11 -13 -5 -16 -1 -15 18 0 13 6 24 11 24 14 1 49 50
35 50 -21 0 -7 38 60 160 26 48 26 70 0 42 -11 -12 -20 -28 -20 -37 0 -8 -3
-15 -7 -15 -17 -1 -56 -98 -51 -129 2 -17 1 -31 -4 -31 -4 0 -8 5 -8 11 0 5
-4 7 -10 4 -13 -8 -13 1 0 26 8 13 7 19 0 19 -6 0 -15 -11 -20 -25 -5 -14 -14
-25 -20 -25 -10 0 -1 32 22 73 7 12 11 30 10 39 -4 23 26 78 42 78 7 0 21 9
31 20 10 11 20 18 22 16 3 -2 13 3 23 12 84 76 107 84 236 80 l111 -3 39 -38z
m523 33 c351 -1 423 -4 435 -16 9 -9 17 -10 21 -4 3 5 17 10 30 10 l23 0 -25
-52 c-30 -62 -58 -100 -67 -91 -17 17 -49 6 -85 -29 -22 -21 -47 -38 -56 -38
-8 0 -15 -4 -15 -10 0 -5 5 -10 11 -10 7 0 -6 -13 -27 -30 -22 -16 -44 -34
-50 -39 -15 -13 -45 -16 -66 -7 -9 4 -25 3 -37 -3 -26 -14 -44 -14 -35 0 4 7
1 10 -7 7 -8 -3 -13 -11 -11 -17 1 -6 -1 -10 -5 -10 -19 3 -25 -2 -15 -14 6
-7 8 -18 3 -25 -8 -14 -127 42 -166 78 -16 15 -31 21 -45 17 -17 -4 -19 -3 -9
9 12 15 89 20 89 5 0 -5 9 -11 20 -14 11 -3 20 -1 20 4 0 5 -7 9 -15 9 -8 0
-15 4 -15 9 0 5 -20 12 -45 15 -25 4 -50 13 -57 20 -7 7 -19 11 -26 8 -16 -5
-52 26 -52 44 0 8 -24 37 -52 67 -69 69 -116 122 -102 114 6 -4 201 -7 433 -7z
m581 -30 c-6 -11 -14 -21 -18 -21 -28 -5 -51 -5 -48 0 1 3 6 14 9 24 4 11 17
17 37 17 28 0 30 -2 20 -20z m260 0 c0 -12 6 -20 13 -19 17 3 47 -11 47 -22 0
-5 -7 -9 -15 -9 -8 0 -15 -4 -15 -9 0 -16 79 -81 99 -81 29 0 115 -85 109
-108 -3 -10 1 -30 8 -43 13 -22 13 -21 8 21 -5 38 -3 43 8 29 7 -9 19 -14 26
-12 6 3 12 0 12 -6 0 -6 9 -11 21 -11 11 0 17 -4 14 -10 -3 -5 -2 -10 3 -10 5
0 20 -24 32 -54 12 -30 29 -57 37 -60 11 -5 13 -2 8 11 -15 38 -23 73 -17 73
9 0 32 -72 32 -98 0 -10 6 -24 13 -31 10 -12 8 -13 -8 -6 -11 4 -43 11 -72 15
-28 5 -66 13 -85 18 -18 6 -59 16 -90 23 -32 7 -58 14 -58 16 0 2 6 13 13 24
10 17 10 23 0 26 -7 3 -13 9 -13 14 0 12 -37 49 -50 49 -5 0 -10 4 -10 8 0 5
-23 19 -50 32 -28 13 -56 30 -61 37 -13 15 -56 8 -78 -12 -11 -11 -10 -15 7
-24 11 -6 34 -23 51 -38 16 -16 43 -39 59 -53 26 -21 28 -26 14 -36 -12 -9
-23 -8 -49 2 -44 19 -53 18 -53 -8 0 -12 -7 -29 -15 -38 -9 -10 -17 -42 -19
-79 -2 -41 0 -58 6 -49 7 9 8 7 5 -9 -3 -13 -1 -23 4 -23 5 0 9 -4 9 -10 0 -5
-14 -10 -30 -10 -17 0 -54 -13 -83 -30 -30 -16 -59 -30 -66 -30 -7 0 6 26 28
57 26 38 37 61 31 67 -14 14 -12 46 3 47 10 0 10 2 0 6 -7 2 -13 11 -13 19 0
8 -4 14 -8 14 -12 0 -58 -141 -54 -167 2 -14 -3 -23 -10 -23 -14 0 -20 -41 -7
-50 5 -3 -17 -36 -47 -73 -29 -38 -54 -73 -54 -78 0 -5 -78 -9 -188 -9 l-189
0 3 143 c2 78 3 159 4 180 0 31 4 39 28 48 59 24 70 32 81 56 l12 25 -31 -26
c-34 -28 -73 -42 -89 -31 -17 10 -13 28 4 21 9 -3 24 3 35 14 11 11 25 17 32
15 7 -3 29 9 48 28 19 18 49 38 65 46 62 28 90 45 103 63 7 10 22 18 33 18 46
0 117 80 106 121 -4 15 -2 19 9 15 9 -3 30 2 47 11 32 16 45 29 80 78 17 24
23 25 117 25 94 0 100 -1 100 -20z m137 -96 c-3 -3 -12 -4 -19 -1 -8 3 -5 6 6
6 11 1 17 -2 13 -5z m-1326 -21 c13 -17 13 -17 -6 -3 -11 8 -22 16 -24 17 -2
2 0 3 6 3 6 0 17 -8 24 -17z m1438 -61 c19 -14 21 -21 11 -27 -9 -5 -11 -4 -6
3 4 7 1 12 -7 12 -17 0 -59 44 -51 53 4 4 12 0 18 -8 6 -7 22 -22 35 -33z
m-1233 -137 c16 -12 16 -14 3 -15 -9 0 -22 7 -29 15 -16 19 0 19 26 0z m317
-12 c-7 -2 -19 -2 -25 0 -7 3 -2 5 12 5 14 0 19 -2 13 -5z m-33 -24 c0 -10
-28 -19 -61 -19 -19 0 -27 4 -23 13 4 13 84 18 84 6z m-1070 -66 c1 -16 7 -39
15 -53 8 -14 14 -34 15 -44 0 -10 10 -38 22 -62 21 -43 20 -63 -1 -49 -6 3
-20 38 -32 78 -12 40 -27 75 -34 79 -13 8 -8 78 6 78 5 0 9 -12 9 -27z m1870
-14 c36 -12 81 -23 100 -24 19 -2 49 -6 65 -9 42 -7 179 -57 183 -66 2 -4 11
-6 21 -3 28 7 101 -16 101 -32 0 -9 -10 -15 -24 -15 -12 0 -37 -5 -55 -11 -25
-9 -31 -16 -31 -40 0 -20 -5 -29 -16 -29 -8 0 -13 4 -9 9 3 5 1 12 -5 16 -5 3
-10 -2 -10 -12 0 -15 -2 -16 -10 -3 -5 8 -10 11 -10 7 0 -4 -9 -3 -19 3 -13 7
-21 23 -23 48 -2 30 -7 38 -25 40 -18 3 -23 -1 -23 -21 0 -21 -5 -24 -37 -25
-60 -2 -103 17 -103 48 0 14 -5 32 -10 40 -9 13 -12 13 -25 -4 -7 -10 -18 -15
-23 -12 -6 3 -13 -1 -16 -10 -5 -12 -13 -14 -33 -9 -31 7 -45 24 -38 43 3 7
-2 24 -11 38 -9 13 -15 24 -13 24 2 0 19 -4 37 -9 25 -8 32 -7 29 2 -2 7 -11
11 -21 9 -9 -2 -16 4 -16 13 0 8 1 15 3 15 1 0 31 -10 67 -21z m-1394 -33 c10
-8 16 -17 13 -20 -3 -4 -17 2 -30 13 -27 23 -13 28 17 7z m1281 -31 c-6 -19
-16 -35 -24 -35 -16 0 -16 -1 -2 39 16 46 41 42 26 -4z m-1883 9 c3 -8 2 -12
-4 -9 -6 3 -10 10 -10 16 0 14 7 11 14 -7z m115 -63 c11 -34 11 -34 -9 -16
-11 10 -20 30 -20 44 0 31 13 18 29 -28z m-95 23 c3 -8 2 -12 -4 -9 -6 3 -10
10 -10 16 0 14 7 11 14 -7z m736 -40 c14 -36 14 -36 -22 -34 -18 1 -36 1 -40
0 -5 -1 -14 -3 -20 -4 -24 -2 -15 -41 10 -44 19 -3 21 -6 11 -18 -9 -11 -8
-14 7 -15 62 -4 84 -8 96 -18 7 -6 22 -18 32 -25 12 -8 19 -25 19 -45 0 -17 4
-31 9 -31 5 0 3 -6 -4 -12 -15 -15 -358 -13 -358 1 0 4 27 49 60 100 34 50 66
103 72 117 7 15 23 27 40 31 16 3 31 10 34 14 11 19 45 8 54 -17z m1765 6 c3
-5 17 -10 31 -10 13 0 24 -5 24 -10 0 -6 11 -15 25 -20 22 -8 29 -19 27 -41
-1 -3 12 -4 27 -1 24 3 32 -2 51 -35 13 -21 23 -46 22 -55 -1 -21 14 -24 21
-5 3 9 7 9 17 0 10 -9 8 -15 -9 -29 -26 -23 -26 -30 -1 -37 11 -3 20 -10 20
-16 0 -8 -10 -6 -29 3 -16 9 -31 13 -34 10 -8 -9 -58 27 -51 37 3 5 14 9 24 9
23 0 32 13 24 34 -8 20 -27 20 -64 1 -18 -10 -27 -20 -24 -30 5 -12 1 -12 -25
-2 -17 6 -31 15 -31 20 0 4 5 5 10 2 17 -11 11 3 -14 29 -13 15 -30 26 -38 26
-8 0 -19 5 -25 11 -12 12 -33 4 -33 -12 0 -5 9 -18 20 -29 15 -15 16 -20 5
-20 -15 0 -19 3 -65 64 -21 27 -27 42 -20 51 5 6 6 15 2 20 -4 4 8 5 25 2 42
-8 63 0 63 24 0 20 15 26 25 9z m-755 -44 c0 -2 -7 -7 -16 -10 -8 -3 -12 -2
-9 4 6 10 25 14 25 6z m257 -24 c34 -18 164 -55 201 -57 20 -1 54 -9 75 -18
20 -9 37 -14 37 -11 0 3 6 2 13 -3 6 -4 23 -9 37 -11 13 -2 30 -7 36 -13 6 -5
14 -6 18 -2 4 4 4 -1 0 -11 -5 -14 -4 -17 4 -12 7 4 12 2 12 -4 0 -7 8 -9 20
-5 14 4 20 2 20 -8 0 -15 58 -42 110 -51 34 -6 -99 0 -186 9 -48 4 -74 3 -78
-4 -4 -6 -32 -11 -62 -11 -54 0 -55 1 -82 44 -30 48 -50 56 -152 56 -31 0 -61
5 -67 11 -16 16 -53 -7 -65 -42 -5 -16 -16 -29 -23 -29 -7 0 -15 -9 -18 -21
-3 -12 -10 -18 -15 -15 -5 3 -75 6 -156 7 -83 0 -146 4 -146 10 0 5 5 9 10 9
6 0 10 7 10 15 0 8 5 15 10 15 5 0 9 3 8 8 0 4 2 15 7 25 6 13 10 15 15 7 8
-14 30 -5 30 11 0 6 -4 7 -10 4 -16 -10 -12 11 5 25 13 11 14 10 9 -4 -9 -25
7 -19 43 14 18 17 39 30 47 30 8 0 21 6 28 13 31 29 64 37 150 32 48 -2 95 -8
105 -13z m-1758 -185 c2 -15 -201 -4 -206 11 -8 19 7 29 17 12 14 -23 21 -6
11 26 -5 16 -12 53 -16 83 l-6 54 100 -89 c54 -49 100 -93 100 -97z m1957 148
c15 -11 16 -14 3 -15 -8 0 -24 7 -35 15 -15 11 -16 14 -3 15 8 0 24 -7 35 -15z
m534 -2 c41 -27 52 -53 25 -53 -8 0 -15 4 -15 10 0 5 -12 21 -27 35 -31 28
-20 34 17 8z m-669 -139 c8 -9 21 -13 35 -10 13 4 26 1 30 -6 5 -7 2 -9 -8 -5
-9 3 -19 3 -23 -1 -4 -4 -40 -7 -81 -8 -62 0 -74 2 -72 15 6 28 98 40 119 15z
m-1751 -65 c27 -23 48 -44 47 -48 -3 -9 7 -13 23 -7 8 2 27 6 41 9 20 3 25 0
22 -12 -5 -19 36 -71 55 -71 7 0 23 -7 35 -14 28 -19 136 -36 162 -26 11 4 31
17 44 29 13 12 30 22 38 22 18 2 24 4 53 16 14 6 33 14 42 17 10 3 24 27 33
61 l16 55 60 0 59 0 -5 -77 c-7 -94 0 -135 23 -131 14 3 17 16 18 68 0 36 1
82 2 103 l2 39 163 -3 c89 -1 170 -5 181 -7 15 -4 17 -12 13 -49 -3 -27 -12
-50 -23 -58 -11 -8 -15 -15 -11 -15 4 0 2 -10 -5 -22 -7 -13 -11 -27 -9 -32 1
-6 -3 -20 -10 -33 -11 -20 -10 -25 5 -36 14 -10 17 -29 18 -92 0 -44 4 -85 9
-91 5 -6 7 -25 5 -42 -2 -18 1 -32 5 -32 5 0 9 -17 9 -39 0 -21 11 -69 25
-105 27 -71 26 -86 -6 -86 -11 0 -22 -7 -25 -15 -4 -8 -10 -13 -14 -10 -10 6
-42 -54 -35 -65 11 -18 -123 -27 -154 -11 -9 5 -46 11 -81 12 -61 3 -65 4 -89
38 -25 38 -168 180 -211 211 -39 28 -184 63 -238 58 -59 -6 -118 -34 -125 -59
-7 -25 -29 -24 -52 1 -10 11 -23 20 -28 20 -6 0 2 -14 18 -30 l29 -31 -36 3
c-24 2 -51 15 -82 42 -47 39 -57 56 -32 56 8 0 23 -13 32 -29 10 -17 22 -27
27 -24 5 3 5 8 -1 12 -5 3 -19 22 -31 41 -11 19 -21 29 -21 22 0 -20 -41 6
-77 48 -30 35 -103 171 -103 191 0 6 -8 23 -19 37 -21 30 -46 112 -56 185 l-6
47 111 0 111 0 49 -41z m518 26 c10 -4 7 -15 -10 -45 -20 -33 -29 -40 -65 -46
-43 -6 -70 -34 -33 -34 11 0 20 -4 20 -9 0 -13 -94 -23 -121 -12 l-24 10 27 0
c38 1 27 25 -12 28 -18 1 -28 -2 -25 -7 4 -6 1 -10 -4 -10 -6 0 -11 7 -11 15
0 8 -5 15 -11 15 -5 0 -7 -4 -4 -10 8 -14 3 -13 -33 6 -18 8 -32 21 -32 29 0
7 -7 16 -16 19 -8 3 -12 10 -9 16 3 5 2 10 -4 10 -26 0 4 29 32 32 45 4 319
-2 335 -7z m-463 -5 c3 -5 2 -10 -4 -10 -5 0 -13 5 -16 10 -3 6 -2 10 4 10 5
0 13 -4 16 -10z m1469 -46 c1 -23 12 -54 25 -72 22 -32 22 -32 1 -32 -11 0
-23 -7 -26 -15 -4 -8 -12 -15 -20 -15 -8 0 -14 -4 -14 -10 0 -5 -8 -10 -18
-10 -26 0 -54 -83 -40 -121 5 -16 14 -29 19 -29 5 0 9 -7 9 -15 0 -8 -6 -12
-14 -9 -11 4 -13 -2 -9 -29 l4 -34 -66 -1 c-42 0 -73 -6 -83 -15 -10 -8 -25
-17 -34 -20 -10 -4 -18 -11 -18 -17 0 -10 -36 -50 -45 -50 -3 0 -5 15 -5 33 0
18 -7 42 -15 54 -16 23 -33 113 -21 113 4 0 16 -5 27 -11 30 -16 123 -13 158
5 31 17 66 69 56 86 -3 5 -1 11 4 14 9 6 5 68 -9 124 -5 19 -5 32 1 32 5 0 9
5 9 10 0 6 -5 10 -11 10 -13 0 -79 50 -79 60 0 4 48 7 106 6 l106 -1 2 -41z
m266 34 c0 -3 10 -4 23 0 18 4 17 1 -11 -22 -31 -27 -42 -28 -85 -11 -13 6
-16 3 -11 -9 4 -11 1 -16 -12 -16 -24 0 -54 29 -54 52 0 18 7 19 75 16 41 -2
75 -6 75 -10z m190 -8 c0 -5 -4 -10 -10 -10 -12 0 -13 -40 -1 -59 17 -27 -6
-49 -59 -56 -27 -4 -50 -11 -50 -15 0 -5 -3 -17 -6 -27 -6 -15 -4 -16 7 -5 16
14 63 17 54 2 -3 -5 -13 -10 -21 -10 -8 0 -26 -7 -40 -16 -23 -16 -23 -17 -7
-30 17 -12 16 -13 -5 -14 -13 0 -20 -4 -17 -10 3 -5 -2 -22 -12 -37 -14 -21
-14 -25 -3 -18 12 7 12 5 -1 -15 -9 -14 -26 -25 -37 -24 -12 0 -18 -5 -15 -12
3 -7 -6 -31 -19 -53 l-24 -40 -10 38 c-13 49 18 141 47 141 11 0 19 4 19 8 0
11 -69 72 -81 72 -5 0 -9 7 -9 15 0 8 7 15 15 15 18 0 20 16 4 26 -7 4 8 14
32 23 87 32 148 70 155 96 5 22 12 25 50 25 24 0 44 -4 44 -10z m148 -2 c7 -7
12 -15 12 -19 0 -14 -31 -18 -55 -7 -19 9 -22 14 -14 25 14 16 41 17 57 1z
m215 -22 c14 -42 -10 -56 -92 -56 -36 0 -76 -3 -89 -7 l-24 -6 26 28 c28 30
31 40 16 50 -25 16 -4 22 72 21 81 -1 81 -1 91 -30z m-733 -38 c0 -10 -4 -18
-8 -18 -15 0 -35 48 -28 67 7 16 9 16 21 -7 8 -14 14 -33 15 -42z m-325 34
c-3 -3 -11 0 -18 7 -9 10 -8 11 6 5 10 -3 15 -9 12 -12z m80 -59 c14 -25 20
-56 20 -98 0 -53 -4 -64 -27 -88 -15 -15 -32 -27 -38 -27 -6 0 -4 8 6 17 24
24 44 76 44 114 0 35 -38 111 -52 103 -9 -6 -11 10 -2 19 11 11 30 -4 49 -40z
m655 30 c11 -10 20 -21 20 -25 0 -12 -39 14 -44 29 -7 18 0 16 24 -4z m480 -9
c0 -17 -6 -28 -19 -31 -11 -3 -22 -11 -25 -19 -3 -9 -20 -14 -48 -14 l-43 1
38 20 c21 11 41 27 44 35 4 11 9 12 18 4 10 -8 15 -6 20 9 9 28 15 26 15 -5z
m-1246 -11 c55 -60 66 -77 66 -103 0 -35 -24 -56 -83 -71 -43 -12 -48 -12 -61
6 -23 31 -15 124 13 146 13 11 17 19 9 21 -15 5 -1 28 17 28 7 0 25 -12 39
-27z m1146 -3 c0 -5 -4 -10 -10 -10 -5 0 -10 5 -10 10 0 6 5 10 10 10 6 0 10
-4 10 -10z m-370 -50 c0 -5 -5 -10 -11 -10 -5 0 -7 5 -4 10 3 6 8 10 11 10 2
0 4 -4 4 -10z m-405 -16 c15 -10 25 -26 25 -40 0 -21 -5 -24 -40 -24 -22 0
-40 -4 -40 -10 0 -5 -6 -10 -14 -10 -8 0 -28 -16 -45 -35 -26 -30 -32 -33 -38
-19 -3 10 0 22 8 28 8 6 14 22 14 35 0 27 49 86 64 77 5 -4 12 -2 16 4 9 14
22 13 50 -6z m745 -5 c0 -5 -7 -5 -17 -2 -11 4 -14 3 -9 -5 4 -7 1 -12 -8 -12
-8 0 -30 -9 -49 -20 -30 -18 -35 -19 -41 -5 -6 18 -66 21 -66 3 0 -6 -3 -8 -6
-5 -9 9 16 38 27 31 5 -3 9 -1 9 5 0 6 6 8 13 6 6 -3 35 1 62 8 50 14 85 12
85 -4z m-320 -63 c0 -3 -4 -8 -10 -11 -5 -3 -10 -1 -10 4 0 6 5 11 10 11 6 0
10 -2 10 -4z m-95 -66 c-10 -11 -14 -20 -9 -20 5 0 0 -7 -10 -15 -11 -8 -27
-26 -36 -40 -14 -21 -19 -23 -28 -12 -9 10 -1 24 35 60 43 45 86 69 48 27z
m-326 -45 c-16 -30 -28 -58 -28 -60 0 -3 -1 -9 -4 -13 -2 -4 -2 -1 -1 6 2 7
-6 16 -18 21 -14 5 -17 10 -10 15 7 4 12 14 12 22 0 8 -4 12 -10 9 -5 -3 -10
-1 -10 5 0 13 59 50 81 50 14 0 12 -9 -12 -55z m441 30 c-7 -8 -18 -15 -25
-15 -7 0 -18 -7 -25 -15 -7 -8 -17 -15 -23 -15 -16 0 12 26 48 44 37 20 41 20
25 1z m-203 -102 c0 -10 -11 -31 -26 -46 -24 -26 -27 -27 -38 -11 -11 16 -13
16 -13 2 0 -9 5 -18 11 -20 12 -4 -6 -40 -69 -144 -18 -28 -32 -56 -32 -63 0
-6 -4 -11 -9 -11 -4 0 -6 -11 -4 -25 3 -14 -1 -31 -10 -39 -8 -9 -17 -21 -20
-28 -2 -7 -8 -9 -13 -5 -5 4 -2 12 5 17 8 5 15 30 17 61 2 40 8 58 23 70 13
10 16 19 10 21 -7 2 -9 13 -5 26 9 27 26 29 19 2 -3 -11 0 -20 6 -20 5 0 8 6
5 14 -3 8 0 17 5 21 6 3 9 11 5 16 -3 5 1 21 10 34 9 13 16 29 16 34 0 18 44
84 48 73 6 -19 22 -14 22 7 0 17 11 28 31 30 3 1 6 -7 6 -16z m-347 -40 c-11
-17 -11 -17 -6 0 3 10 6 24 7 30 0 9 2 9 5 0 3 -7 0 -20 -6 -30z m96 -3 c8 0
14 -4 14 -9 0 -12 -56 -81 -62 -75 -3 2 -11 -2 -18 -11 -11 -13 -14 -12 -26
11 -18 34 -18 54 0 54 9 0 12 -7 9 -21 -5 -17 -2 -20 23 -16 22 3 29 9 30 28
2 47 6 64 11 52 2 -7 11 -13 19 -13z m-186 -21 c0 -5 -4 -9 -10 -9 -5 0 -10 7
-10 16 0 8 5 12 10 9 6 -3 10 -10 10 -16z m-55 -3 c42 -18 45 -37 8 -53 -39
-19 -49 -16 -28 7 14 16 15 20 4 21 -35 3 -55 -4 -71 -24 -13 -18 -19 -19 -29
-10 -15 15 -16 13 35 47 46 31 38 30 81 12z m318 -26 c-3 -11 -13 -26 -22 -33
-23 -18 -40 -51 -70 -137 -15 -41 -31 -82 -36 -90 -23 -36 -35 -63 -30 -70 7
-11 -148 -17 -185 -7 -38 10 -48 26 -14 24 15 -1 29 4 33 13 4 8 14 28 22 45
9 18 26 33 44 38 85 25 135 64 105 82 -17 11 -11 35 9 35 24 0 131 86 131 106
0 7 4 14 9 14 5 0 7 -9 4 -20z m-233 -27 c0 -7 -9 -13 -20 -13 -17 0 -18 3 -8
25 8 19 14 22 20 13 4 -7 8 -19 8 -25z m-1504 -24 l29 -32 -32 18 c-18 11 -35
25 -37 32 -9 23 9 14 40 -18z m1529 -19 c3 -5 1 -10 -4 -10 -6 0 -11 5 -11 10
0 6 2 10 4 10 3 0 8 -4 11 -10z m-73 -33 c-18 -18 -32 -38 -32 -44 0 -19 20
-26 35 -13 11 9 15 9 15 1 0 -6 -18 -19 -40 -28 -24 -11 -40 -24 -40 -35 0 -9
-4 -19 -8 -22 -4 -3 -8 18 -7 46 1 36 6 53 18 60 10 5 15 14 11 19 -10 16 27
49 55 49 l25 0 -32 -33z m-129 1 c18 4 20 3 11 -9 -6 -8 -12 -41 -13 -74 -1
-33 -4 -61 -6 -63 -2 -2 -11 22 -20 54 -10 33 -23 64 -31 70 -8 6 -12 19 -8
28 5 14 9 14 26 2 10 -8 29 -11 41 -8z m-826 -53 c25 -17 70 -84 65 -98 -1 -4
4 -15 13 -23 8 -9 15 -25 15 -36 0 -19 -4 -20 -42 -14 -52 9 -128 41 -128 55
0 6 12 11 27 11 14 0 23 3 19 7 -8 8 -12 9 -66 12 -24 1 -46 12 -70 33 -24 21
-29 29 -15 25 11 -3 31 -9 44 -13 17 -5 22 -4 17 4 -4 7 -15 12 -25 12 -9 0
-26 6 -36 14 -19 13 -18 15 15 25 46 14 135 6 167 -14z m1048 15 c3 -5 1 -10
-4 -10 -6 0 -11 5 -11 10 0 6 2 10 4 10 3 0 8 -4 11 -10z m-861 -59 c18 -20
18 -21 -5 -30 -24 -10 -24 -10 -1 -10 12 -1 22 -5 22 -10 0 -5 3 -16 6 -25 4
-11 0 -16 -12 -16 -14 0 -15 -3 -6 -12 19 -19 14 -29 -8 -16 -12 8 -20 24 -20
39 0 14 -6 47 -14 72 -13 43 -13 46 3 38 9 -5 25 -18 35 -30z m-366 -30 c-5
-2 -26 5 -46 15 -50 25 -48 24 -33 33 9 6 27 0 51 -18 21 -14 33 -28 28 -30z
m-36 -17 c68 -16 203 -76 193 -86 -5 -5 -297 2 -303 7 -2 2 0 24 3 49 8 53 7
53 107 30z m464 -12 c13 -8 25 -52 15 -52 -4 0 -15 14 -24 30 -17 29 -14 38 9
22z m512 -51 c-4 -22 -25 -24 -30 -4 -4 13 1 19 14 19 11 0 17 -6 16 -15z
m-981 -57 c-22 -12 -35 -13 -67 -4 -22 6 -40 13 -40 15 0 3 30 5 68 5 65 -1
66 -1 39 -16z m313 6 c0 -12 -166 -12 -195 0 -13 6 18 9 88 9 65 1 107 -3 107
-9z m918 -9 c16 -1 27 -11 38 -36 13 -32 13 -36 -4 -52 -20 -20 -72 -28 -72
-12 0 6 4 18 9 28 5 9 6 23 2 30 -6 8 -10 2 -14 -18 -4 -17 -13 -31 -20 -31
-15 0 -42 49 -32 58 3 3 5 0 5 -6 0 -6 7 -9 15 -6 8 4 15 10 15 15 0 5 -7 9
-15 9 -8 0 -15 6 -15 14 0 10 10 13 33 12 17 -2 42 -4 55 -5z m63 -16 c5 4 9
-1 9 -10 0 -26 -25 -11 -27 16 -1 15 0 17 3 6 3 -9 10 -15 15 -12z m-261 -35
c0 -5 -6 -10 -14 -10 -8 0 -18 5 -21 10 -3 6 3 10 14 10 12 0 21 -4 21 -10z
m150 -70 c0 -13 -11 -13 -30 0 -12 8 -11 10 8 10 12 0 22 -4 22 -10z m75 -10
c3 -5 -1 -10 -9 -10 -9 0 -16 5 -16 10 0 6 4 10 9 10 6 0 13 -4 16 -10z m135
-116 c0 -14 -4 -23 -10 -19 -5 3 -10 15 -10 26 0 10 5 19 10 19 6 0 10 -12 10
-26z m-50 -276 c0 -5 -4 -6 -10 -3 -5 3 -10 1 -10 -4 0 -6 7 -11 15 -11 9 0
12 -6 9 -15 -6 -14 -8 -13 -20 2 -7 10 -14 29 -14 42 0 20 2 21 15 11 8 -7 15
-17 15 -22z m58 -29 c-3 -33 -4 -33 -8 8 -3 23 -2 39 3 34 5 -5 7 -24 5 -42z
m-40 -150 c10 -16 10 -24 1 -35 -6 -8 -8 -14 -4 -14 5 0 6 -3 3 -6 -6 -6 -49
18 -82 45 -17 15 -17 16 10 22 50 11 59 10 72 -12z m-143 -47 c-13 -13 -23 22
-12 42 11 20 12 20 15 -7 2 -16 1 -32 -3 -35z m105 -12 c-20 -13 -40 -13 -40
0 0 6 12 10 28 10 21 0 24 -2 12 -10z"/>
<path d="M4090 5560 c0 -5 5 -10 11 -10 5 0 7 5 4 10 -3 6 -8 10 -11 10 -2 0
-4 -4 -4 -10z"/>
<path d="M2473 4126 c-58 -31 -93 -58 -93 -70 0 -12 29 -5 74 19 26 14 55 25
64 25 9 0 25 7 35 14 16 13 16 15 2 30 -9 9 -17 16 -18 16 -1 0 -30 -15 -64
-34z"/>
<path d="M3343 4094 c-14 -6 -18 -36 -6 -47 3 -4 11 -3 18 3 12 10 82 -5 100
-21 11 -11 62 -12 69 -1 18 30 -136 86 -181 66z"/>
<path d="M3460 3992 c-14 -2 -29 -7 -35 -12 -5 -4 -24 -11 -40 -14 -17 -4 -36
-15 -43 -26 -10 -16 -9 -21 7 -30 25 -13 58 -13 66 0 3 6 26 10 50 10 59 0 97
15 93 38 -2 9 -14 19 -28 20 -14 2 -29 7 -35 11 -5 4 -21 5 -35 3z"/>
<path d="M2442 3971 c-33 -20 39 -53 151 -68 33 -4 37 -3 37 16 0 14 -11 25
-32 34 -40 17 -140 28 -156 18z"/>
<path d="M3320 3880 c0 -5 5 -10 11 -10 5 0 7 5 4 10 -3 6 -8 10 -11 10 -2 0
-4 -4 -4 -10z"/>
<path d="M3288 3623 c7 -3 16 -2 19 1 4 3 -2 6 -13 5 -11 0 -14 -3 -6 -6z"/>
<path d="M2795 3250 c-3 -6 1 -7 9 -4 10 4 16 1 16 -10 0 -8 14 -26 31 -38 17
-13 37 -35 45 -50 17 -32 57 -38 90 -14 10 8 28 13 39 10 38 -8 73 44 53 80
-11 20 -47 21 -54 2 -3 -8 -21 -17 -40 -21 -28 -5 -40 -1 -64 19 -18 14 -37
22 -49 19 -10 -2 -22 0 -25 6 -9 14 -43 14 -51 1z"/>
<path d="M3228 3233 c7 -3 16 -2 19 1 4 3 -2 6 -13 5 -11 0 -14 -3 -6 -6z"/>
<path d="M3480 3214 c0 -8 5 -12 10 -9 6 4 8 11 5 16 -9 14 -15 11 -15 -7z"/>
<path d="M3425 3142 c-18 -4 -44 -29 -45 -43 0 -3 19 -5 43 -5 30 1 41 5 39
15 -2 8 2 17 8 21 15 9 -18 18 -45 12z"/>
<path d="M3290 3021 c0 -5 5 -13 10 -16 6 -3 10 -2 10 4 0 5 -4 13 -10 16 -5
3 -10 2 -10 -4z"/>
<path d="M2455 2990 c3 -5 12 -7 20 -3 21 7 19 13 -6 13 -11 0 -18 -4 -14 -10z"/>
<path d="M3390 2940 c-12 -8 -11 -10 8 -10 12 0 22 5 22 10 0 13 -11 13 -30 0z"/>
<path d="M3395 2890 c4 -6 11 -8 16 -5 14 9 11 15 -7 15 -8 0 -12 -5 -9 -10z"/>
<path d="M2210 2076 c0 -2 7 -7 16 -10 8 -3 12 -2 9 4 -6 10 -25 14 -25 6z"/>
<path d="M3308 2793 c6 -2 18 -2 25 0 6 3 1 5 -13 5 -14 0 -19 -2 -12 -5z"/>
<path d="M4031 2534 c0 -11 3 -14 6 -6 3 7 2 16 -1 19 -3 4 -6 -2 -5 -13z"/>
<path d="M3510 2508 c0 -7 5 -20 10 -28 8 -12 10 -11 10 7 0 12 -4 25 -10 28
-5 3 -10 0 -10 -7z"/>
<path d="M3975 2510 c-3 -5 -1 -10 4 -10 6 0 11 5 11 10 0 6 -2 10 -4 10 -3 0
-8 -4 -11 -10z"/>
<path d="M4045 2490 c4 -14 7 -33 8 -42 1 -10 7 -20 13 -22 14 -5 4 40 -16 71
-10 16 -11 15 -5 -7z"/>
<path d="M4010 2476 c0 -9 5 -16 10 -16 6 0 10 4 10 9 0 6 -4 13 -10 16 -5 3
-10 -1 -10 -9z"/>
<path d="M3516 2434 c-8 -20 1 -34 20 -34 17 0 17 10 0 33 -12 16 -14 16 -20
1z"/>
<path d="M3048 2309 c-33 -32 -34 -41 -10 -61 28 -25 82 -31 104 -12 21 20 22
34 7 68 -17 38 -66 40 -101 5z m62 -29 c0 -5 -4 -10 -10 -10 -5 0 -10 5 -10
10 0 6 5 10 10 10 6 0 10 -4 10 -10z"/>
<path d="M3405 2140 c3 -5 8 -10 11 -10 2 0 4 5 4 10 0 6 -5 10 -11 10 -5 0
-7 -4 -4 -10z"/>
<path d="M3070 2103 c-11 -8 -20 -19 -20 -24 0 -6 -7 -17 -16 -26 -14 -14 -14
-18 -1 -31 20 -19 78 -9 102 18 39 43 -16 97 -65 63z"/>
<path d="M3605 2102 c-52 -29 -69 -52 -40 -52 8 0 15 4 15 10 0 5 11 12 25 16
13 3 29 12 36 20 6 8 16 14 21 14 15 0 -2 -43 -24 -62 -23 -21 -88 -24 -107
-5 -10 10 -15 8 -27 -7 -17 -24 -19 -45 -3 -29 7 7 21 8 41 2 33 -9 88 -2 88
12 0 5 4 9 10 9 17 0 50 34 50 50 0 21 -20 40 -39 39 -9 0 -29 -8 -46 -17z"/>
<path d="M2525 1720 c3 -5 8 -10 11 -10 2 0 4 5 4 10 0 6 -5 10 -11 10 -5 0
-7 -4 -4 -10z"/>
<path d="M3247 1713 c-4 -3 -7 -13 -7 -20 0 -12 3 -12 15 1 8 8 15 17 15 20 0
8 -15 7 -23 -1z"/>
<path d="M2570 1689 c0 -5 9 -9 20 -9 11 0 20 2 20 4 0 2 -9 6 -20 9 -11 3
-20 1 -20 -4z"/>
<path d="M3234 1649 c-3 -6 -1 -16 5 -22 8 -8 11 -5 11 11 0 24 -5 28 -16 11z"/>
<path d="M2158 1503 c7 -3 16 -2 19 1 4 3 -2 6 -13 5 -11 0 -14 -3 -6 -6z"/>
<path d="M2240 1392 c0 -12 19 -26 26 -19 2 2 -2 10 -11 17 -9 8 -15 8 -15 2z"/>
<path d="M2495 1900 c-3 -5 -1 -10 4 -10 6 0 11 5 11 10 0 6 -2 10 -4 10 -3 0
-8 -4 -11 -10z"/>
<path d="M2545 1850 c3 -5 8 -10 11 -10 2 0 4 5 4 10 0 6 -5 10 -11 10 -5 0
-7 -4 -4 -10z"/>
<path d="M3915 1800 c4 -6 11 -8 16 -5 14 9 11 15 -7 15 -8 0 -12 -5 -9 -10z"/>
<path d="M3785 1359 c-11 -17 1 -21 15 -4 8 9 8 15 2 15 -6 0 -14 -5 -17 -11z"/>
<path d="M3660 1142 c0 -5 7 -9 15 -9 8 0 15 4 15 9 0 4 -7 8 -15 8 -8 0 -15
-4 -15 -8z"/>
<path d="M2560 1260 c-12 -8 -11 -10 8 -10 12 0 22 5 22 10 0 13 -11 13 -30 0z"/>
<path d="M2636 1239 c16 -17 16 -22 4 -31 -12 -8 -11 -9 4 -4 10 4 24 2 31 -4
7 -6 16 -7 19 -2 7 12 -42 62 -61 62 -14 0 -14 -3 3 -21z"/>
<path d="M3082 5859 c-18 -18 -30 -34 -28 -36 4 -4 65 35 76 48 3 4 14 9 25
12 14 3 11 5 -11 6 -21 1 -39 -8 -62 -30z"/>
<path d="M2570 5694 c0 -14 3 -15 18 -3 9 7 19 15 21 16 2 2 -5 3 -17 3 -14 0
-22 -6 -22 -16z"/>
<path d="M1155 5530 l-130 -6 120 -1 c66 -1 145 2 175 7 53 7 53 7 10 7 -25
-1 -103 -4 -175 -7z"/>
<path d="M1468 5533 c45 -2 119 -2 165 0 45 1 8 3 -83 3 -91 0 -128 -2 -82 -3z"/>
<path d="M833 5513 c26 -2 67 -2 90 0 23 2 2 3 -48 3 -49 0 -68 -1 -42 -3z"/>
<path d="M978 5513 c7 -3 16 -2 19 1 4 3 -2 6 -13 5 -11 0 -14 -3 -6 -6z"/>
<path d="M623 5503 c9 -2 23 -2 30 0 6 3 -1 5 -18 5 -16 0 -22 -2 -12 -5z"/>
<path d="M387 5493 c18 -2 50 -2 70 0 21 2 7 4 -32 4 -38 0 -55 -2 -38 -4z"/>
<path d="M228 5483 c17 -2 47 -2 65 0 17 2 3 4 -33 4 -36 0 -50 -2 -32 -4z"/>
<path d="M2450 5470 c11 -11 25 -20 32 -20 6 0 2 9 -10 20 -12 11 -26 20 -32
20 -5 0 -1 -9 10 -20z"/>
<path d="M48 5473 c12 -2 32 -2 45 0 12 2 2 4 -23 4 -25 0 -35 -2 -22 -4z"/>
<path d="M4088 5468 c-29 -10 -38 -28 -15 -28 18 0 67 24 67 33 0 9 -18 8 -52
-5z"/>
<path d="M2751 5425 c-1 -35 2 -45 14 -45 8 0 15 6 15 14 0 7 3 28 6 45 6 26
3 31 -13 31 -16 0 -20 -8 -22 -45z"/>
<path d="M3072 5230 c0 -66 5 -123 9 -126 5 -3 9 -18 9 -33 0 -15 3 -31 7 -35
7 -7 8 -9 22 -71 l9 -40 2 40 c11 188 7 245 -19 246 -11 0 -12 2 -3 6 9 3 10
9 3 17 -5 6 -11 34 -13 60 -2 27 -8 51 -15 53 -9 3 -12 -27 -11 -117z"/>
<path d="M2770 5238 c0 -39 -4 -68 -10 -68 -5 0 -10 -7 -10 -15 0 -8 4 -15 9
-15 6 0 7 -16 4 -36 -5 -31 8 -119 25 -164 3 -8 6 -18 6 -22 1 -9 16 -11 16
-3 0 3 0 35 0 71 0 41 -4 63 -10 59 -5 -3 -10 -1 -10 4 0 6 3 11 8 11 9 0 8
138 -2 147 -3 3 -6 20 -6 37 0 17 -5 38 -10 46 -7 11 -10 -5 -10 -52z"/>
<path d="M2345 5243 c14 -34 37 -118 51 -186 15 -76 27 -102 50 -115 10 -5 17
-24 17 -48 2 -50 20 -49 30 2 14 70 14 79 5 97 -5 10 -10 31 -10 48 -1 16 -4
29 -8 29 -3 0 -14 24 -23 53 -12 37 -24 57 -41 65 -14 6 -26 22 -29 41 -5 23
-12 31 -28 31 -16 0 -19 -4 -14 -17z"/>
<path d="M2218 5233 c7 -3 16 -2 19 1 4 3 -2 6 -13 5 -11 0 -14 -3 -6 -6z"/>
<path d="M3135 5230 c-3 -5 1 -10 10 -10 9 0 13 5 10 10 -3 6 -8 10 -10 10 -2
0 -7 -4 -10 -10z"/>
<path d="M3325 5231 c-9 -15 -26 -164 -23 -204 2 -27 8 -37 20 -37 24 0 32 18
16 37 -11 15 -11 16 5 10 11 -4 17 -2 17 8 0 8 -6 15 -12 15 -9 0 -8 4 2 10
10 6 11 10 3 10 -7 0 -13 7 -13 16 0 8 3 13 8 11 4 -3 6 26 4 64 -3 64 -12 83
-27 60z"/>
<path d="M3681 5218 c-5 -13 -21 -38 -35 -57 -21 -28 -26 -31 -27 -15 0 17 -2
16 -12 -4 -7 -16 -7 -26 0 -30 12 -9 -12 -72 -28 -72 -6 0 -8 -9 -4 -21 5 -15
4 -19 -4 -15 -6 4 -15 -4 -21 -19 -14 -37 -13 -42 11 -48 33 -9 47 2 54 41 7
38 49 132 86 194 21 35 21 68 -1 68 -6 0 -14 -10 -19 -22z"/>
<path d="M3610 5200 c0 -5 7 -10 15 -10 8 0 15 5 15 10 0 6 -7 10 -15 10 -8 0
-15 -4 -15 -10z"/>
<path d="M3329 4953 c-7 -19 -6 -29 2 -37 9 -8 10 -8 5 2 -4 7 -1 12 7 12 9 0
15 10 15 25 0 33 -16 32 -29 -2z"/>
<path d="M870 4640 l-195 -6 223 -2 c122 -1 222 0 222 2 0 9 -67 11 -250 6z"/>
<path d="M570 4630 l-25 -8 28 -1 c15 -1 27 4 27 9 0 6 -1 10 -2 9 -2 -1 -14
-5 -28 -9z"/>
<path d="M378 4623 c28 -2 76 -2 105 0 28 2 5 3 -53 3 -58 0 -81 -1 -52 -3z"/>
<path d="M118 4613 c34 -2 88 -2 120 0 31 2 3 3 -63 3 -66 0 -92 -1 -57 -3z"/>
<path d="M2126 4355 c-3 -8 -1 -15 4 -15 13 0 22 18 11 24 -5 3 -11 -1 -15 -9z"/>
<path d="M2157 4303 c-4 -3 -7 -13 -7 -22 1 -13 3 -13 11 2 11 19 8 33 -4 20z"/>
<path d="M2055 4201 c-6 -5 -34 -22 -63 -36 -30 -15 -51 -29 -49 -32 7 -6 136
60 137 70 0 10 -14 9 -25 -2z"/>
<path d="M5262 3621 c4 -13 18 -16 19 -4 0 4 -5 9 -11 12 -7 2 -11 -2 -8 -8z"/>
<path d="M6010 3590 c0 -5 5 -10 10 -10 6 0 10 5 10 10 0 6 -4 10 -10 10 -5 0
-10 -4 -10 -10z"/>
<path d="M3865 3160 c-3 -6 1 -7 9 -4 18 7 21 14 7 14 -6 0 -13 -4 -16 -10z"/>
<path d="M3971 3087 c2 -1 12 -9 22 -16 15 -12 17 -12 11 3 -3 9 -13 16 -22
16 -8 0 -13 -1 -11 -3z"/>
<path d="M4225 2779 c8 -12 56 -32 62 -25 4 3 -54 36 -64 36 -2 0 -1 -5 2 -11z"/>
<path d="M4065 2770 c-3 -6 -3 -10 2 -10 4 0 22 -12 38 -26 17 -14 50 -43 75
-63 25 -20 50 -42 56 -50 10 -12 13 -11 24 8 7 15 8 21 1 17 -9 -6 -74 36
-141 93 -14 11 -30 25 -37 31 -8 6 -14 6 -18 0z"/>
<path d="M4128 2773 c7 -3 16 -2 19 1 4 3 -2 6 -13 5 -11 0 -14 -3 -6 -6z"/>
<path d="M4160 2773 c0 -5 12 -13 26 -20 22 -10 25 -10 20 3 -3 9 -6 18 -6 20
0 2 -9 4 -20 4 -11 0 -20 -3 -20 -7z"/>
<path d="M4226 2741 c-9 -14 18 -31 33 -22 11 7 9 11 -7 20 -12 6 -23 7 -26 2z"/>
<path d="M4280 2730 c0 -5 7 -10 15 -10 8 0 15 5 15 10 0 6 -7 10 -15 10 -8 0
-15 -4 -15 -10z"/>
<path d="M5928 2723 c6 -2 18 -2 25 0 6 3 1 5 -13 5 -14 0 -19 -2 -12 -5z"/>
<path d="M4240 2694 c0 -14 28 -31 39 -24 7 4 9 10 5 12 -19 10 -44 17 -44 12z"/>
<path d="M4265 2590 c-3 -5 -2 -10 4 -10 5 0 13 5 16 10 3 6 2 10 -4 10 -5 0
-13 -4 -16 -10z"/>
<path d="M38 2053 c23 -2 59 -2 80 0 20 2 1 4 -43 4 -44 0 -61 -2 -37 -4z"/>
<path d="M1706 1671 c-4 -5 -1 -13 5 -16 16 -11 112 -35 117 -30 2 2 -9 7 -24
11 -16 4 -43 15 -61 26 -18 11 -34 15 -37 9z"/>
<path d="M5 1226 c18 -8 439 -38 480 -34 22 2 -41 9 -140 16 -238 17 -352 23
-340 18z"/>
<path d="M2090 1095 c0 -5 5 -17 10 -25 5 -8 10 -10 10 -5 0 6 -5 17 -10 25
-5 8 -10 11 -10 5z"/>
<path d="M5900 1050 c0 -5 5 -10 11 -10 5 0 7 5 4 10 -3 6 -8 10 -11 10 -2 0
-4 -4 -4 -10z"/>
<path d="M5458 1033 c7 -3 16 -2 19 1 4 3 -2 6 -13 5 -11 0 -14 -3 -6 -6z"/>
<path d="M2160 1010 c0 -5 5 -10 11 -10 5 0 7 5 4 10 -3 6 -8 10 -11 10 -2 0
-4 -4 -4 -10z"/>
<path d="M13 413 c9 -2 23 -2 30 0 6 3 -1 5 -18 5 -17 0 -22 -2 -12 -5z"/>
<path d="M78 403 c12 -2 32 -2 45 0 12 2 2 4 -23 4 -25 0 -35 -2 -22 -4z"/>
<path d="M210 389 c30 -4 98 -10 150 -13 l95 -5 -115 14 c-128 15 -221 18
-130 4z"/>
<path d="M515 360 c28 -5 73 -8 100 -8 l50 1 -55 7 c-30 5 -75 8 -100 8 l-45
-1 50 -7z"/>
<path d="M675 349 c-3 -3 33 -9 78 -12 45 -3 208 -15 362 -26 424 -30 713 -44
1130 -56 105 -2 289 -8 410 -11 657 -19 2556 -28 3065 -14 107 3 196 2 198 -2
2 -5 12 -3 22 2 10 6 38 9 62 8 24 -1 96 -1 161 0 95 2 117 5 117 17 0 11 -11
14 -52 11 -142 -11 -1036 -21 -1828 -21 -830 0 -1894 11 -1923 20 -6 2 -142 6
-302 9 -432 9 -1082 43 -1418 75 -43 4 -80 4 -82 0z"/>
</g>
</svg>
