<?xml version="1.0" standalone="no"?>
<!DOCTYPE svg PUBLIC "-//W3C//DTD SVG 20010904//EN"
 "http://www.w3.org/TR/2001/REC-SVG-20010904/DTD/svg10.dtd">
<svg version="1.0" xmlns="http://www.w3.org/2000/svg"
 width="628.000000pt" height="628.000000pt" viewBox="0 0 628.000000 628.000000"
 preserveAspectRatio="xMidYMid meet">

<g transform="translate(0.000000,628.000000) scale(0.100000,-0.100000)"
fill="#000000" stroke="none">
<path d="M0 5020 l0 -1260 827 0 c456 -1 902 -3 993 -6 93 -3 178 -1 195 5 18
6 23 10 11 10 -13 1 -16 6 -11 19 3 9 10 35 15 57 20 89 22 95 40 95 12 0 27
21 47 68 35 78 51 138 34 128 -6 -4 -11 -3 -11 2 0 6 7 12 15 16 18 6 21 76 3
76 -6 0 -3 9 7 20 10 11 24 20 32 20 18 0 17 7 -6 39 -13 18 -17 32 -11 42 10
15 2 88 -10 102 -4 5 -5 23 -1 40 8 41 3 87 -10 87 -6 0 -9 -8 -8 -17 3 -19
-15 -93 -31 -128 -19 -46 -27 -80 -34 -147 -3 -32 -11 -43 -25 -33 -15 8 -14
31 2 47 6 7 13 24 14 38 2 34 60 251 72 272 8 14 4 17 -32 21 -23 2 -250 4
-505 4 -254 0 -465 3 -470 7 -4 4 -2 7 3 6 6 -1 236 -2 511 -1 l502 1 4 23 c3
13 -7 120 -21 237 -20 165 -30 214 -41 217 -63 17 -148 48 -161 59 -8 8 -21
14 -27 14 -20 0 -50 41 -57 78 -3 21 -13 47 -21 59 -18 29 -32 126 -14 103 9
-12 10 -10 4 10 -4 14 -7 37 -6 52 1 23 -4 28 -24 28 -13 0 -24 5 -24 10 0 6
6 10 13 8 25 -4 52 13 66 43 8 17 33 43 57 57 24 15 44 34 44 44 0 49 119 84
257 75 98 -6 172 -28 221 -64 l32 -24 15 33 c7 18 22 40 32 49 31 26 96 57
128 62 17 3 57 10 89 17 72 14 110 8 163 -26 31 -21 40 -33 41 -55 0 -19 -4
-29 -14 -29 -8 0 -14 4 -14 10 0 15 -51 58 -78 65 -16 4 -28 1 -33 -7 -7 -11
-9 -11 -9 0 0 10 -10 12 -39 7 -126 -21 -231 -81 -231 -131 0 -17 4 -23 12
-18 7 4 8 3 4 -5 -4 -6 -12 -9 -17 -6 -10 7 -12 -2 -13 -57 l-1 -38 179 0 c99
0 177 -2 174 -5 -9 -9 -937 -11 -931 -2 2 4 123 7 269 7 295 0 280 -4 248 70
-10 22 -30 45 -48 54 -17 9 -50 28 -72 41 -61 37 -200 44 -277 15 -30 -11 -58
-28 -61 -37 -6 -14 -4 -14 17 0 31 20 96 37 102 27 8 -13 -6 -40 -21 -40 -22
0 -124 -50 -124 -60 0 -6 -6 -10 -14 -10 -13 0 -53 -94 -48 -111 0 -4 -3 -22
-8 -40 -19 -64 25 -153 80 -164 31 -6 40 -14 40 -38 0 -16 3 -18 9 -8 6 9 11
10 15 2 4 -6 21 -11 37 -11 28 0 29 2 18 23 -20 39 -94 126 -104 123 -5 -1
-12 -13 -16 -27 -6 -21 -7 -22 -14 -6 -5 13 -2 25 12 39 20 19 20 19 72 -32
43 -43 55 -49 67 -39 12 10 16 9 21 -9 6 -25 28 -29 37 -7 3 8 10 15 15 15 6
0 8 -6 5 -14 -3 -8 2 -26 11 -39 18 -28 5 -46 -15 -22 -12 14 -40 21 -40 10 0
-9 71 -75 81 -75 12 0 12 -187 -1 -195 -13 -8 -7 -198 7 -202 6 -2 14 4 16 14
3 10 4 2 2 -17 -7 -58 3 -63 70 -31 33 15 101 36 150 46 50 10 93 20 97 22 4
2 38 6 75 8 38 2 120 6 183 10 63 4 119 11 124 16 11 10 199 13 209 2 4 -3 45
-7 92 -7 63 -1 85 2 85 12 0 20 25 24 71 11 24 -7 49 -13 55 -15 6 -1 26 -5
43 -9 27 -6 31 -4 31 15 0 11 7 23 15 26 8 4 15 14 15 23 1 14 3 13 15 -3 21
-28 19 -35 -12 -47 -23 -9 -25 -12 -12 -19 16 -9 75 -25 144 -40 22 -4 56 -13
75 -19 56 -18 57 -17 59 59 2 69 15 117 36 133 6 4 5 10 -4 16 -10 6 -11 19
-6 47 4 22 8 60 8 87 1 34 6 47 16 47 12 0 12 3 3 12 -19 19 -14 36 17 52 26
14 30 14 35 -1 4 -9 1 -20 -6 -25 -7 -4 -8 -8 -3 -8 6 0 2 -7 -8 -14 -18 -14
-7 -33 12 -22 4 3 17 -1 27 -9 16 -13 17 -16 4 -25 -12 -8 -10 -10 10 -10 14
0 48 13 76 29 42 25 56 41 83 94 17 35 34 80 38 101 7 45 20 55 33 24 8 -18 9
-11 5 30 -3 30 -10 61 -15 70 -5 10 -11 24 -13 33 -4 13 -36 17 -224 22 -324
10 -359 9 -377 -8 -19 -20 -26 -19 -27 3 0 9 -10 -16 -22 -57 -23 -76 -31 -87
-56 -72 -9 6 -10 14 -3 27 6 11 13 40 17 67 l7 47 -183 1 c-299 3 -430 7 -437
14 -4 4 133 5 305 2 231 -4 313 -2 316 6 7 19 1 190 -7 209 -4 9 -15 19 -24
22 -9 4 -29 13 -43 21 -43 24 -137 26 -186 5 -24 -11 -43 -23 -43 -27 0 -5
-13 -17 -30 -26 l-30 -18 10 27 c14 36 5 42 -25 14 -15 -14 -25 -36 -27 -59
-4 -43 -28 -49 -42 -10 -22 63 49 129 184 170 64 19 73 20 88 6 9 -8 31 -17
47 -20 17 -3 50 -12 74 -21 24 -9 52 -16 62 -16 13 0 30 -23 59 -80 l40 -80
28 25 c46 44 165 89 257 98 72 7 162 -17 179 -48 6 -11 16 -23 21 -27 6 -4 -1
-8 -15 -8 -24 -1 -24 -1 -5 -12 11 -6 22 -14 25 -18 8 -11 50 -32 50 -25 0 3
-9 15 -20 27 -26 29 -25 38 5 38 14 0 25 -4 25 -9 0 -5 11 -23 25 -39 14 -17
21 -32 15 -34 -17 -6 4 -54 35 -80 l30 -25 320 -7 c176 -4 370 -9 430 -11 124
-6 484 -20 865 -35 140 -5 292 -13 338 -16 l82 -6 0 411 0 411 -3140 0 -3140
0 0 -1260z m3155 863 c-11 -3 -22 -8 -25 -12 -9 -11 -69 -51 -77 -51 -4 0 8
16 27 35 25 26 42 35 64 34 22 -1 25 -3 11 -6z m-112 -80 c-7 -2 -13 -13 -13
-24 0 -10 -4 -19 -9 -19 -13 0 -9 -39 7 -67 9 -17 9 -28 0 -47 -6 -14 -15 -26
-19 -26 -9 0 -19 26 -19 49 0 9 -12 24 -27 33 -16 10 -22 18 -15 18 10 0 10 5
1 21 -11 21 -10 22 20 16 23 -5 31 -3 31 8 0 8 5 15 10 15 6 0 10 7 10 15 0 8
8 15 18 14 10 0 12 -3 5 -6z m-434 -96 c-2 -1 -12 -9 -21 -16 -15 -12 -18 -11
-18 3 0 10 8 16 22 16 12 0 19 -1 17 -3z m-1289 -177 c-30 -5 -109 -8 -175 -7
l-120 1 130 6 c72 3 150 6 175 7 43 0 43 0 -10 -7z m313 3 c-46 -2 -120 -2
-165 0 -46 1 -9 3 82 3 91 0 128 -2 83 -3z m124 1 c-3 -3 -12 -4 -19 -1 -8 3
-5 6 6 6 11 1 17 -2 13 -5z m-834 -21 c-24 -2 -62 -2 -85 0 -24 2 -5 4 42 4
47 0 66 -2 43 -4z m-270 -10 c-7 -2 -21 -2 -30 0 -10 3 -4 5 12 5 17 0 24 -2
18 -5z m-196 -10 c-20 -2 -52 -2 -70 0 -17 2 0 4 38 4 39 0 53 -2 32 -4z
m2017 -25 c11 -10 15 -18 8 -18 -6 0 -23 11 -38 25 -21 19 -23 24 -8 18 10 -4
28 -15 38 -25z m-2181 15 c-18 -2 -48 -2 -65 0 -18 2 -4 4 32 4 36 0 50 -2 33
-4z m-200 -10 c-13 -2 -33 -2 -45 0 -13 2 -3 4 22 4 25 0 35 -2 23 -4z m4047
0 c0 -9 -49 -33 -67 -33 -23 0 -14 18 15 28 34 13 52 14 52 5z m-1354 -34 c-3
-17 -6 -38 -6 -45 0 -8 -7 -14 -15 -14 -12 0 -15 10 -14 45 2 37 6 45 22 45
16 0 19 -5 13 -31z m312 -145 c2 -26 8 -54 14 -61 8 -9 7 -13 -2 -13 -8 0 -10
-3 -7 -7 4 -3 15 2 26 11 12 11 21 14 26 7 3 -6 0 -11 -9 -11 -12 0 -14 -18
-13 -97 1 -54 7 -101 12 -105 6 -5 5 -8 -2 -8 -8 0 -13 -15 -14 -37 l-1 -38
-9 35 c-5 19 -11 40 -12 47 -2 7 -6 16 -10 19 -4 4 -7 20 -7 35 0 15 -4 30 -9
33 -14 9 -12 248 2 243 7 -2 13 -26 15 -53z m-309 -55 c1 -14 4 -29 7 -32 10
-9 11 -147 2 -147 -5 0 -8 -5 -8 -11 0 -5 5 -7 10 -4 6 4 10 -18 10 -59 0 -36
0 -68 0 -71 0 -8 -15 -6 -16 3 0 4 -3 14 -6 22 -17 45 -30 133 -25 164 3 20 2
36 -4 36 -5 0 -9 7 -9 15 0 8 5 15 10 15 6 0 10 30 11 68 0 46 3 61 9 47 5
-11 9 -32 9 -46z m-402 -10 c3 -19 15 -35 29 -41 17 -8 29 -28 41 -65 9 -29
20 -53 23 -53 4 0 7 -13 8 -29 0 -17 5 -38 10 -48 9 -18 9 -27 -5 -97 -10 -51
-28 -52 -30 -2 0 24 -7 43 -17 48 -23 13 -35 39 -50 115 -8 37 -23 98 -34 136
-19 65 -19 67 0 67 13 0 20 -9 25 -31z m-150 5 c-3 -3 -12 -4 -19 -1 -8 3 -5
6 6 6 11 1 17 -2 13 -5z m1114 -36 c0 -24 2 -55 4 -71 2 -15 0 -25 -6 -22 -5
4 -9 -1 -9 -9 0 -9 6 -16 13 -16 8 0 7 -4 -3 -10 -10 -6 -11 -10 -2 -10 6 0
12 -7 12 -16 0 -14 -3 -14 -15 -4 -17 14 -21 0 -4 -17 14 -14 3 -33 -19 -33
-12 0 -18 10 -20 37 -3 40 14 189 23 204 14 21 25 6 26 -33z m366 26 c3 -9 -4
-32 -16 -52 -37 -62 -79 -156 -86 -194 -8 -40 -21 -50 -55 -41 -16 4 -20 11
-16 27 3 11 6 27 6 35 0 8 6 11 16 7 12 -4 14 -1 9 14 -4 11 -2 20 4 20 16 0
40 63 28 72 -7 4 -7 14 0 30 10 20 12 21 12 4 1 -16 6 -13 27 15 14 19 30 44
35 57 10 26 27 29 36 6z m-77 -24 c0 -5 -7 -10 -15 -10 -8 0 -15 5 -15 10 0 6
7 10 15 10 8 0 15 -4 15 -10z m-282 -245 c0 -15 -6 -25 -15 -25 -8 0 -11 -5
-7 -12 5 -10 4 -10 -5 -2 -8 8 -9 18 -2 37 13 34 29 35 29 2z m-2238 -321 c0
-2 -98 -3 -217 -2 l-218 2 190 6 c178 5 245 3 245 -6z m-637 -11 c-29 -2 -77
-2 -105 0 -29 2 -6 3 52 3 58 0 81 -1 53 -3z m110 0 c-7 -2 -21 -2 -30 0 -10
3 -4 5 12 5 17 0 24 -2 18 -5z m-355 -10 c-32 -2 -86 -2 -120 0 -35 2 -9 3 57
3 66 0 94 -1 63 -3z m1907 -264 c-10 -15 -25 -10 -19 6 4 8 10 12 15 9 5 -3 7
-10 4 -15z m16 -66 c-8 -15 -10 -15 -11 -2 0 17 10 32 18 25 2 -3 -1 -13 -7
-23z m-71 -77 c0 -7 -142 -78 -147 -73 -2 3 19 17 49 32 29 14 57 31 63 36 9
9 35 13 35 5z"/>
<path d="M3876 5715 c-19 -10 -33 -12 -39 -6 -6 6 -27 1 -59 -15 -28 -14 -47
-20 -43 -13 6 9 1 10 -21 5 -37 -10 -39 -12 -24 -32 12 -13 11 -17 -1 -25 -8
-5 -21 -9 -29 -9 -12 1 -11 3 3 11 19 11 23 29 6 29 -16 0 -41 -29 -34 -40 3
-5 -3 -17 -15 -27 -11 -10 -20 -25 -20 -35 0 -17 17 -18 240 -19 132 -1 254
-2 270 -3 21 -1 30 4 30 14 -1 15 -50 75 -83 99 -15 12 -17 12 -11 -3 3 -9 1
-16 -5 -16 -6 0 -10 3 -10 8 3 19 -2 33 -11 27 -5 -3 -10 -1 -10 5 0 6 -8 9
-17 6 -10 -3 -29 2 -43 10 -25 15 -25 15 10 9 35 -6 35 -6 -9 15 -51 24 -40
23 -75 5z m229 -155 c3 -5 1 -10 -4 -10 -6 0 -11 5 -11 10 0 6 2 10 4 10 3 0
8 -4 11 -10z"/>
<path d="M3533 5648 c1 -21 5 -38 10 -38 10 0 8 42 -3 60 -7 11 -9 5 -7 -22z"/>
<path d="M3590 5609 c-15 -28 -4 -38 15 -13 17 22 19 34 5 34 -5 0 -14 -9 -20
-21z"/>
<path d="M3537 5570 c6 -21 28 -27 38 -11 3 6 -3 15 -14 20 -27 15 -30 14 -24
-9z"/>
<path d="M4190 5551 c0 -5 5 -13 10 -16 6 -3 10 -2 10 4 0 5 -4 13 -10 16 -5
3 -10 2 -10 -4z"/>
<path d="M4245 5503 c35 -78 -10 -255 -77 -301 -20 -14 -20 -16 -3 -28 16 -12
13 -15 -29 -35 -26 -12 -52 -29 -59 -39 -7 -9 -35 -29 -62 -43 l-51 -25 -17
-99 c-15 -86 -19 -121 -31 -223 -2 -14 -6 -35 -10 -47 -4 -12 -3 -23 1 -26 4
-3 265 -7 578 -11 721 -8 966 -13 1588 -32 l207 -7 0 426 0 425 -72 6 c-40 3
-179 11 -308 16 -129 6 -269 12 -310 15 -41 2 -149 7 -240 10 -91 3 -217 8
-280 10 -63 2 -207 7 -320 10 -113 3 -274 8 -359 11 -146 5 -153 5 -146 -13z"/>
<path d="M1936 5237 c8 -22 91 -57 134 -57 46 0 51 10 15 27 -14 6 -25 7 -25
3 0 -7 -18 -3 -72 16 -10 4 -18 10 -18 15 0 5 -9 9 -20 9 -12 0 -17 -5 -14
-13z"/>
<path d="M2185 5160 c3 -5 8 -10 11 -10 2 0 4 5 4 10 0 6 -5 10 -11 10 -5 0
-7 -4 -4 -10z"/>
<path d="M2195 5100 c-3 -5 -1 -10 4 -10 6 0 11 5 11 10 0 6 -2 10 -4 10 -3 0
-8 -4 -11 -10z"/>
<path d="M4008 5085 c-2 -3 -23 -6 -46 -8 -46 -5 -60 -18 -25 -23 12 -2 41 5
65 15 24 11 36 20 27 20 -9 1 -18 -1 -21 -4z"/>
<path d="M2889 4786 c-2 -3 -56 -8 -119 -11 -162 -8 -192 -14 -197 -36 -4 -14
-9 -17 -18 -9 -12 10 -92 -11 -105 -28 -3 -4 -18 -15 -33 -25 -15 -10 -25 -22
-22 -26 2 -5 168 -9 367 -10 200 -1 473 -4 607 -7 255 -5 301 -2 301 21 0 9 6
12 15 9 8 -4 15 -2 15 4 0 13 -86 36 -101 27 -7 -5 -10 -4 -6 2 8 12 -52 28
-158 43 -38 5 -113 16 -165 25 -93 15 -372 30 -381 21z"/>
<path d="M3516 4782 c-3 -6 3 -12 15 -15 12 -3 19 -1 16 6 -5 15 -24 20 -31 9z"/>
<path d="M3721 4731 c-23 -6 -21 -8 18 -20 24 -7 49 -15 57 -18 25 -9 5 24
-22 36 -14 6 -26 11 -27 10 -1 -1 -13 -4 -26 -8z"/>
<path d="M3887 4715 c-4 -8 -2 -17 3 -20 6 -4 10 3 10 14 0 25 -6 27 -13 6z"/>
<path d="M3695 4640 c3 -5 11 -10 16 -10 6 0 7 5 4 10 -3 6 -11 10 -16 10 -6
0 -7 -4 -4 -10z"/>
<path d="M2280 4620 c-11 -6 -15 -25 -14 -62 2 -88 6 -93 50 -91 35 3 37 2 14
-7 -14 -6 -31 -18 -37 -27 -8 -10 -13 -12 -13 -5 0 7 -5 12 -12 12 -23 0 16
-28 48 -34 22 -5 36 -2 55 14 64 56 64 56 132 88 4 2 7 -1 7 -6 0 -5 -23 -23
-51 -41 -28 -17 -49 -34 -46 -37 3 -3 33 2 67 10 34 9 70 16 81 16 10 0 42 11
71 24 29 14 85 29 123 35 107 17 126 22 120 31 -2 4 17 5 43 3 l47 -5 -60 43
-60 44 -275 3 c-166 1 -281 -2 -290 -8z"/>
<path d="M2946 4589 c50 -40 94 -59 139 -59 33 0 35 2 29 26 -8 29 -8 30 55
-13 25 -17 48 -23 87 -23 34 0 58 -5 68 -16 9 -8 16 -13 16 -9 0 3 10 -1 22
-9 12 -9 35 -16 50 -16 16 0 28 -5 28 -11 0 -5 4 -8 8 -5 5 3 21 -2 36 -10 16
-7 35 -14 42 -14 8 0 14 -7 14 -15 0 -9 6 -12 15 -9 8 4 22 1 30 -6 8 -6 18
-9 24 -6 9 6 62 -32 91 -66 8 -10 26 -19 40 -20 23 -3 24 -1 23 61 0 35 3 58
7 51 5 -8 9 -4 13 12 10 34 8 50 -3 43 -5 -3 -10 3 -10 15 0 12 4 19 8 16 4
-2 14 -1 22 5 13 7 12 9 -2 9 -10 0 -17 3 -15 8 1 4 -2 8 -8 10 -5 1 -10 -4
-10 -10 0 -7 -8 -14 -19 -16 -18 -4 -18 -3 0 27 10 16 22 27 27 24 4 -3 3 4
-4 14 -23 38 -82 43 -481 43 l-381 0 39 -31z"/>
<path d="M3933 4612 c-24 -4 -27 -15 -39 -127 -8 -73 -7 -242 2 -286 4 -20 0
-28 -21 -37 -22 -10 -24 -15 -15 -33 8 -13 8 -34 3 -62 -10 -48 -5 -127 8
-127 5 0 8 8 7 18 -4 51 15 69 41 38 10 -12 9 -20 -3 -39 -15 -22 -15 -25 9
-47 30 -28 32 -50 5 -73 -20 -17 -20 -16 -15 6 4 15 -1 31 -14 46 -11 12 -22
28 -24 34 -2 7 -8 9 -12 5 -4 -4 -3 -13 1 -20 8 -12 25 -74 41 -150 l5 -28
557 0 c597 -1 1204 -6 1579 -15 l232 -5 0 428 0 429 -167 7 c-93 3 -269 8
-393 11 -124 3 -286 7 -360 10 -74 3 -385 7 -690 11 -305 3 -591 7 -635 8 -44
1 -90 0 -102 -2z"/>
<path d="M2822 4460 c-89 -10 -122 -18 -122 -29 0 -5 14 -12 31 -16 36 -8 59
-47 42 -73 -12 -20 -100 -45 -160 -46 -27 0 -43 -5 -43 -13 0 -19 -39 -36 -54
-24 -7 6 -16 8 -20 4 -3 -4 -17 -8 -29 -10 -12 -2 -23 -8 -25 -13 -2 -6 -13
-10 -25 -10 -52 0 -64 -10 -64 -49 0 -51 -37 -158 -90 -261 -24 -47 -46 -104
-50 -127 l-6 -43 134 -1 c74 0 144 -2 157 -5 15 -3 25 2 29 14 10 28 55 72 75
72 26 0 33 -26 14 -55 -9 -13 -16 -27 -16 -29 0 -3 24 -4 53 -3 l52 2 3 58 c3
51 6 59 28 67 33 13 64 13 64 0 0 -5 -7 -10 -16 -10 -9 0 -14 -6 -11 -12 2 -7
11 -13 20 -13 9 0 22 -6 29 -13 9 -9 7 -12 -10 -12 -21 0 -42 -31 -42 -61 0
-5 94 -9 231 -9 l230 0 -6 23 c-4 12 -19 34 -33 50 l-26 27 21 21 c20 20 21
21 43 2 27 -23 50 -64 52 -98 2 -19 8 -25 25 -25 13 0 23 6 23 14 0 8 4 18 10
21 13 8 50 -13 50 -28 0 -9 45 -13 170 -14 l170 -3 0 65 c0 35 -4 66 -9 69
-17 11 -49 91 -55 141 -5 35 -3 61 8 86 16 38 8 59 -21 59 -8 0 -28 7 -45 16
-25 13 -36 14 -50 5 -27 -17 -51 -13 -75 13 -14 14 -45 28 -82 36 -42 9 -70
22 -95 45 -33 30 -34 33 -23 66 7 19 18 44 25 55 19 36 -26 59 -113 59 -38 -1
-58 1 -42 3 41 5 33 22 -10 21 -49 -2 -106 -16 -78 -19 11 -1 28 -1 39 0 11 1
15 -3 12 -9 -8 -12 -76 -15 -76 -3 0 4 -20 6 -45 4 -31 -3 -49 1 -60 12 -9 9
-22 15 -28 15 -7 -1 -45 -5 -85 -9z m-262 -324 c0 -17 -21 -36 -41 -36 -10 0
-39 -11 -65 -25 -45 -24 -74 -31 -74 -19 0 12 35 39 92 70 60 31 88 34 88 10z
m903 -58 c53 -22 69 -36 61 -50 -7 -11 -58 -10 -69 1 -18 16 -88 31 -100 21
-14 -12 -25 -3 -25 21 0 35 60 38 133 7z m67 -100 c14 -1 26 -11 28 -20 4 -23
-34 -38 -93 -38 -24 0 -47 -4 -50 -10 -8 -13 -41 -13 -66 0 -16 9 -17 14 -7
30 7 11 26 22 43 26 16 3 35 10 40 14 15 12 58 17 70 9 6 -4 21 -9 35 -11z
m-932 -25 c21 -9 32 -20 32 -34 0 -19 -4 -20 -37 -16 -112 15 -184 48 -151 68
16 10 116 -1 156 -18z m737 -73 c3 -5 1 -10 -4 -10 -6 0 -11 5 -11 10 0 6 2
10 4 10 3 0 8 -4 11 -10z"/>
<path d="M2638 4393 c7 -3 16 -2 19 1 4 3 -2 6 -13 5 -11 0 -14 -3 -6 -6z"/>
<path d="M2552 4383 c-6 -2 -10 -8 -8 -12 3 -3 -9 -14 -25 -23 -26 -15 -29
-15 -29 -1 0 11 -6 14 -22 9 -13 -3 -29 -6 -35 -6 -7 0 -13 -12 -13 -27 0 -21
3 -24 12 -15 15 15 32 16 23 2 -3 -5 1 -10 9 -10 8 0 18 5 21 10 3 6 15 10 25
10 11 0 27 11 36 25 9 14 23 25 31 25 8 0 11 5 8 10 -7 11 -13 11 -33 3z"/>
<path d="M2582 4357 l-21 -23 69 10 c75 10 80 20 14 30 -34 5 -44 2 -62 -17z"/>
<path d="M3350 4330 c-23 -18 -24 -20 -9 -36 9 -9 54 -29 100 -45 97 -33 89
-31 89 -21 -1 22 -24 37 -67 41 -45 6 -48 8 -48 34 -1 24 -18 47 -35 47 -3 0
-16 -9 -30 -20z"/>
<path d="M2261 4289 c-17 -16 -21 -28 -16 -49 4 -16 -1 -55 -10 -89 -13 -46
-21 -58 -33 -54 -9 4 -13 2 -9 -5 7 -11 -27 -117 -46 -140 -5 -6 -7 -26 -3
-43 4 -22 1 -36 -13 -51 -14 -15 -18 -29 -14 -54 4 -25 2 -34 -8 -34 -25 0 13
-20 39 -20 18 0 22 6 22 29 0 43 49 203 69 226 20 22 56 112 66 162 5 27 4 32
-9 27 -9 -3 -16 -5 -17 -3 -10 75 -10 92 2 100 7 4 11 10 8 13 -3 3 -16 -4
-28 -15z"/>
<path d="M2330 4280 c-13 -24 -8 -25 30 -5 36 19 38 25 5 25 -14 0 -29 -8 -35
-20z"/>
<path d="M3700 4271 c0 -5 7 -14 15 -21 9 -7 14 -19 11 -27 -8 -20 4 -43 24
-43 10 0 20 6 23 14 8 21 -4 58 -18 52 -6 -2 -18 4 -26 15 -14 20 -29 25 -29
10z"/>
<path d="M3542 4258 c5 -15 28 -23 28 -10 0 5 -7 13 -16 16 -10 4 -14 1 -12
-6z"/>
<path d="M3612 4224 c10 -10 20 -15 24 -12 3 4 -5 12 -18 18 -22 12 -22 12 -6
-6z"/>
<path d="M3732 4107 c-17 -35 -24 -80 -12 -72 5 3 10 -2 10 -14 0 -11 6 -26
13 -33 6 -8 17 -23 23 -33 14 -25 29 -17 26 12 -2 11 2 24 7 28 6 3 11 34 10
68 0 34 -3 56 -6 50 -5 -15 -33 -18 -33 -4 0 20 -28 18 -38 -2z"/>
<path d="M3772 3909 c2 -7 10 -15 17 -17 8 -3 12 1 9 9 -2 7 -10 15 -17 17 -8
3 -12 -1 -9 -9z"/>
<path d="M3783 3855 c3 -11 9 -42 13 -68 6 -47 22 -66 43 -53 6 4 5 18 -3 39
-8 17 -11 38 -9 45 3 8 -1 10 -12 5 -15 -5 -16 -3 -5 18 7 13 9 21 5 17 -5 -4
-15 -2 -23 5 -12 10 -14 9 -9 -8z"/>
<path d="M2076 3831 c-4 -6 -13 -8 -21 -4 -8 3 -15 1 -15 -5 0 -6 -3 -17 -6
-26 -11 -28 30 -18 43 11 13 26 11 44 -1 24z"/>
<path d="M0 3328 l0 -425 463 -8 c1697 -27 1569 -30 1655 40 42 34 69 38 105
18 11 -7 -33 -43 -52 -43 -14 0 -14 -2 -1 -10 13 -8 12 -10 -3 -10 -10 0 -15
-4 -12 -10 7 -12 185 -14 185 -2 0 5 -3 12 -7 16 -5 4 -9 12 -9 17 -1 5 -2 12
-3 17 0 4 -13 21 -27 37 -14 17 -37 45 -51 62 -14 18 -29 30 -34 27 -5 -3 -9
4 -9 15 0 12 -5 21 -11 21 -6 0 -9 6 -6 13 7 18 -5 36 -33 50 -13 7 -27 26
-32 42 -9 34 -29 80 -75 173 -32 63 -36 112 -10 112 5 0 3 8 -6 18 -10 10 -17
24 -17 30 0 7 -4 12 -9 12 -14 0 -21 44 -8 52 9 5 9 10 0 19 -9 9 -9 18 1 38
13 25 14 76 2 88 -3 3 -453 8 -1001 11 l-995 5 0 -425z"/>
<path d="M2108 3733 c-19 -5 -25 -33 -7 -33 6 0 3 -7 -6 -16 -9 -10 -15 -29
-13 -46 1 -16 -3 -32 -9 -36 -10 -6 -10 -16 -1 -44 8 -29 14 -34 31 -30 18 5
19 2 14 -26 -7 -35 22 -140 33 -122 8 13 20 -21 20 -57 0 -12 9 -38 21 -57 12
-20 16 -36 10 -36 -6 0 -8 -7 -5 -15 5 -13 8 -13 21 0 8 8 23 15 34 15 23 0
25 15 4 24 -9 3 -15 19 -15 41 0 38 32 78 72 91 18 5 17 9 -18 45 -20 21 -41
36 -46 33 -5 -3 -7 -1 -6 3 2 5 -10 21 -27 36 -29 26 -29 27 -11 42 20 15 20
15 0 16 -11 0 -14 3 -6 6 7 3 19 -1 27 -7 12 -10 15 -9 15 4 0 9 -6 19 -14 22
-16 6 -40 61 -50 117 -7 38 -19 43 -68 30z"/>
<path d="M2231 3732 c-20 -14 11 -108 52 -154 29 -32 42 -38 119 -53 l87 -17
49 24 c27 14 62 34 78 45 16 11 53 32 82 47 52 26 62 39 41 51 -5 4 -14 18
-19 31 -9 22 -15 24 -74 24 -68 0 -66 1 -111 -68 -1 -1 -9 0 -17 3 -10 4 -13
16 -10 35 l4 30 -98 0 c-55 0 -115 3 -134 5 -19 3 -41 2 -49 -3z"/>
<path d="M2770 3721 c0 -6 5 -11 10 -11 6 0 10 -5 10 -11 0 -30 40 -47 115
-50 28 -1 56 -6 63 -12 6 -5 12 -6 12 -3 0 4 7 1 15 -8 14 -13 20 -13 58 4 23
11 52 20 63 20 12 0 24 7 27 15 3 7 23 23 44 34 l38 20 -105 1 c-58 1 -160 3
-227 6 -85 4 -123 2 -123 -5z"/>
<path d="M3272 3690 c-22 -30 -30 -66 -12 -55 6 3 10 -2 10 -12 0 -11 13 -24
33 -33 17 -7 37 -16 42 -18 6 -3 -7 9 -29 27 -21 17 -34 31 -28 31 6 0 17 -7
26 -15 8 -8 21 -15 28 -15 15 -1 58 -34 58 -47 1 -4 21 -21 45 -36 34 -22 48
-26 63 -18 14 8 22 5 35 -10 22 -25 43 -24 57 2 9 16 17 19 38 14 15 -4 24 -3
19 1 -4 4 2 17 14 30 16 17 58 142 59 177 0 4 -74 7 -164 7 l-164 0 5 -40 c5
-35 3 -40 -15 -40 -28 0 -52 26 -52 56 0 35 -40 32 -68 -6z"/>
<path d="M3805 3680 c-4 -22 -11 -40 -16 -40 -5 0 -9 -10 -9 -22 0 -12 -3 -18
-7 -15 -3 4 -12 -10 -20 -30 -16 -48 -16 -53 1 -53 15 0 30 -45 20 -61 -3 -5
0 -17 8 -26 9 -12 10 -17 1 -20 -21 -7 -73 -63 -73 -79 0 -8 -5 -25 -12 -37
-6 -12 -12 -55 -13 -94 -2 -68 -1 -73 19 -74 20 0 20 -1 -1 -9 -13 -5 -23 -13
-23 -17 0 -4 -4 -25 -9 -45 -9 -39 3 -54 14 -18 7 23 32 50 46 50 6 0 7 -6 3
-12 -4 -8 -2 -8 7 1 11 10 11 15 2 18 -15 6 -17 49 -3 58 16 10 12 25 -7 25
-14 1 -10 6 12 23 50 36 72 65 83 106 11 44 -1 77 -18 51 -5 -8 -11 -19 -14
-25 -2 -6 -9 -5 -17 3 -12 12 -9 18 17 40 61 53 68 78 63 229 -1 24 -5 41 -9
38 -4 -3 -10 9 -12 25 -3 17 0 30 6 30 11 0 -14 20 -26 20 -3 0 -9 -18 -13
-40z"/>
<path d="M3921 3711 c-7 -5 -10 -14 -7 -20 4 -6 8 -40 10 -76 2 -44 9 -71 20
-84 10 -10 13 -22 8 -25 -5 -3 -12 -33 -16 -68 -3 -34 -16 -91 -28 -126 -17
-51 -25 -63 -39 -59 -19 5 -47 -19 -35 -30 3 -3 21 -2 39 3 55 17 87 -2 55
-34 -16 -16 -28 -15 -28 3 0 8 -5 15 -10 15 -18 0 -70 -30 -70 -40 0 -6 -6 -9
-12 -8 -8 2 -14 -9 -16 -25 -3 -26 -2 -27 17 -15 16 10 23 10 33 0 9 -9 9 -12
-3 -12 -19 0 -52 -34 -42 -43 3 -4 -3 -7 -14 -7 -11 0 -20 -7 -20 -15 0 -22 8
-19 50 20 21 19 43 35 49 35 5 0 8 7 4 15 -4 10 1 15 14 15 11 0 20 -6 20 -12
-1 -17 -41 -62 -62 -70 -8 -4 -25 -20 -37 -37 l-22 -31 21 0 c12 0 36 -11 52
-26 17 -14 37 -23 44 -20 7 3 16 -4 19 -15 4 -10 12 -19 19 -19 7 0 23 -11 36
-24 14 -16 33 -25 49 -24 14 1 529 -2 1144 -7 l1117 -8 0 427 0 426 -52 1
c-29 0 -125 2 -213 4 -88 3 -551 7 -1030 10 -478 3 -911 7 -960 10 -50 2 -96
0 -104 -4z m1360 -94 c-1 -12 -15 -9 -19 4 -3 6 1 10 8 8 6 -3 11 -8 11 -12z
m749 -27 c0 -5 -4 -10 -10 -10 -5 0 -10 5 -10 10 0 6 5 10 10 10 6 0 10 -4 10
-10z m-2150 -424 c0 -3 -4 -8 -10 -11 -5 -3 -10 -1 -10 4 0 6 5 11 10 11 6 0
10 -2 10 -4z m124 -92 c6 -15 4 -15 -11 -3 -10 7 -20 15 -22 16 -2 2 3 3 11 3
9 0 19 -7 22 -16z"/>
<path d="M2047 3647 c-3 -8 -2 -19 3 -26 5 -9 9 -7 13 8 6 23 -8 39 -16 18z"/>
<path d="M3200 3626 c0 -2 7 -6 15 -10 8 -3 15 -1 15 4 0 6 -7 10 -15 10 -8 0
-15 -2 -15 -4z"/>
<path d="M2753 3578 c-9 -10 -20 -18 -26 -18 -5 0 -24 -13 -42 -29 -38 -33
-153 -75 -202 -73 -23 1 -33 -3 -33 -13 0 -8 -8 -15 -17 -15 -30 -1 22 -38 70
-51 23 -6 52 -17 65 -25 12 -8 51 -16 85 -18 34 -2 70 -7 80 -11 12 -5 17 -2
17 10 0 13 6 16 25 11 31 -8 109 24 147 61 15 14 31 22 38 18 7 -4 18 2 26 13
23 33 58 23 109 -31 29 -31 51 -47 61 -43 8 3 22 2 32 -4 42 -22 95 -32 200
-37 122 -5 136 0 139 47 2 20 -6 29 -38 44 -22 10 -55 32 -72 48 -35 32 -187
108 -217 108 -11 0 -31 -5 -46 -12 -22 -10 -28 -10 -39 5 -12 17 -15 17 -53 2
-23 -9 -42 -24 -44 -33 -3 -14 -6 -13 -23 5 -11 11 -40 26 -65 33 -25 6 -53
16 -63 21 -28 15 -95 7 -114 -13z"/>
<path d="M3902 3505 c0 -16 2 -22 5 -12 2 9 2 23 0 30 -3 6 -5 -1 -5 -18z"/>
<path d="M2072 3479 c-7 -11 -19 -18 -26 -16 -10 4 -12 -1 -9 -14 3 -10 12
-19 19 -19 8 0 14 -8 14 -19 0 -10 7 -24 16 -32 20 -16 45 -65 38 -72 -4 -3 1
-15 9 -27 9 -13 17 -17 22 -11 3 6 1 11 -5 11 -7 0 -9 8 -5 20 4 13 -3 39 -19
70 -14 27 -26 60 -27 72 0 13 -4 31 -7 40 -7 16 -8 16 -20 -3z"/>
<path d="M2386 3471 c-3 -5 6 -11 19 -14 29 -5 43 8 19 17 -22 8 -32 8 -38 -3z"/>
<path d="M3625 3400 c-3 -5 -2 -10 4 -10 5 0 13 5 16 10 3 6 2 10 -4 10 -5 0
-13 -4 -16 -10z"/>
<path d="M2892 3333 c-46 -28 -101 -44 -167 -49 -27 -2 -57 -5 -65 -6 -23 -4
-153 13 -170 22 -8 4 -27 10 -41 13 -23 6 -26 4 -26 -19 0 -14 -9 -31 -18 -38
-21 -15 -25 -78 -7 -84 7 -2 12 -10 12 -17 0 -8 10 -15 22 -17 43 -6 29 -25
-17 -22 -42 2 -45 1 -45 -23 0 -18 4 -24 15 -19 8 3 15 1 15 -3 0 -5 -6 -11
-12 -14 -8 -2 -1 -16 21 -35 18 -18 28 -32 23 -32 -6 0 -14 5 -17 10 -11 19
-32 10 -31 -12 1 -16 7 -22 19 -20 14 3 18 -2 15 -20 -4 -32 33 -70 74 -75 18
-1 222 -6 452 -9 381 -5 418 -5 413 10 -4 9 -2 16 4 16 5 0 12 -6 15 -14 8
-20 134 -20 134 0 0 8 4 14 9 14 5 0 13 10 16 22 6 16 1 26 -16 39 -24 18 -24
18 -6 48 10 17 14 31 9 31 -14 0 -25 32 -14 39 13 8 27 55 14 47 -16 -10 -23
23 -9 45 12 20 44 35 54 25 3 -3 1 -12 -5 -19 -9 -10 -8 -14 3 -14 8 0 16 5
16 11 1 6 2 17 3 25 2 21 25 25 26 4 1 -45 5 -63 12 -63 16 0 8 73 -9 87 -11
9 -14 16 -7 19 12 5 6 64 -7 64 -5 0 -9 -5 -9 -11 0 -6 -6 -9 -13 -6 -7 3 -21
-1 -30 -8 -15 -11 -15 -14 -3 -18 8 -3 17 -1 19 6 5 15 13 8 21 -21 6 -16 3
-24 -10 -29 -10 -4 -19 -2 -22 5 -2 7 -13 12 -23 12 -11 0 -18 4 -15 9 4 5 0
12 -6 14 -10 4 -9 8 2 17 16 12 19 12 -98 -11 -34 -6 -65 -16 -68 -20 -3 -5 2
-6 10 -3 9 3 16 2 16 -4 0 -12 -83 -22 -90 -11 -3 4 -21 9 -40 12 -26 3 -21 4
19 5 30 1 52 4 50 6 -5 5 -53 15 -109 22 -59 7 -129 34 -162 62 -40 34 -96 36
-146 5z m-46 -84 c3 -6 15 -8 25 -6 12 3 31 -5 49 -19 24 -20 36 -24 64 -19
19 4 37 13 40 21 7 19 43 18 54 -2 20 -36 -15 -88 -53 -80 -11 3 -29 -2 -39
-10 -33 -24 -73 -18 -90 14 -8 15 -28 37 -45 50 -17 12 -31 30 -31 38 0 11 -6
14 -16 10 -8 -3 -12 -2 -9 4 8 13 42 13 51 -1z m649 -28 c3 -5 1 -12 -5 -16
-5 -3 -10 1 -10 9 0 18 6 21 15 7z m-25 -91 c-6 -4 -10 -13 -8 -21 2 -10 -9
-14 -39 -15 -24 0 -43 2 -43 5 1 14 27 39 45 43 27 6 60 -3 45 -12z m-100 -34
c0 -3 -4 -8 -10 -11 -5 -3 -10 -1 -10 4 0 6 5 11 10 11 6 0 10 -2 10 -4z m-60
-87 c0 -6 -4 -7 -10 -4 -5 3 -10 11 -10 16 0 6 5 7 10 4 6 -3 10 -11 10 -16z
m-830 -19 c-19 -13 -30 -13 -30 0 0 6 10 10 23 10 18 0 19 -2 7 -10z m940 -50
c0 -5 -10 -10 -22 -10 -19 0 -20 2 -8 10 19 13 30 13 30 0z m0 -44 c0 -11 -19
-15 -25 -6 -3 5 1 10 9 10 9 0 16 -2 16 -4z"/>
<path d="M2293 3281 c2 -33 27 -59 27 -27 0 9 -4 16 -9 16 -5 0 -12 10 -14 23
-3 12 -4 7 -4 -12z"/>
<path d="M2387 3303 c-11 -11 -8 -33 5 -33 6 0 8 3 5 7 -4 3 -2 12 4 20 11 13
-2 19 -14 6z"/>
<path d="M2247 3203 c-4 -3 -7 -15 -7 -25 0 -13 8 -18 29 -18 34 0 45 19 22
37 -18 14 -34 16 -44 6z"/>
<path d="M2254 3127 c-12 -13 -3 -35 33 -81 27 -34 59 -30 47 6 -3 13 -11 25
-15 26 -5 2 -9 14 -9 27 0 31 -35 45 -56 22z"/>
<path d="M3574 3114 c3 -9 6 -30 6 -46 0 -37 7 -33 20 11 5 19 5 29 -1 26 -5
-4 -9 1 -9 9 0 9 -5 16 -11 16 -6 0 -8 -7 -5 -16z"/>
<path d="M3551 3108 c-1 -29 -3 -32 -20 -45 -15 -11 -14 -12 1 -13 18 0 34 39
25 62 -4 8 -6 7 -6 -4z"/>
<path d="M3695 2967 c-8 -12 -15 -18 -15 -14 0 5 -14 -2 -31 -14 -22 -15 -27
-24 -18 -29 19 -13 3 -38 -28 -43 -15 -2 14 -4 65 -4 89 0 123 10 85 24 -10 3
-29 15 -42 25 -23 18 -24 17 -42 -4 -18 -20 -19 -20 -19 -2 0 13 15 25 45 39
48 21 54 29 30 39 -8 3 -21 -4 -30 -17z"/>
<path d="M3890 2913 c0 -13 39 -53 50 -53 14 0 13 2 -20 33 -16 16 -30 25 -30
20z"/>
<path d="M0 2477 l0 -416 78 -4 77 -3 -77 -2 -78 -2 0 -408 0 -409 173 -12
c94 -7 213 -16 262 -21 79 -6 83 -7 30 -8 -33 -1 -136 5 -230 13 -93 8 -185
15 -202 15 l-33 0 0 -399 0 -400 28 -4 27 -4 -27 -2 -28 -1 0 -205 0 -205
3140 0 3140 0 0 121 0 120 -172 -5 c-562 -17 -2757 -12 -3453 8 -121 3 -303 8
-405 11 -291 8 -451 15 -650 25 -281 16 -784 51 -789 56 -7 7 58 4 259 -11
682 -51 1738 -77 3130 -79 875 -1 1884 9 2010 19 14 1 35 3 48 3 l22 2 0 411
0 411 -77 -6 c-107 -8 -1410 -8 -1899 0 l-400 7 -18 -49 c-10 -27 -20 -56 -23
-64 -8 -19 -3 -60 8 -81 5 -10 4 -20 -3 -27 -7 -7 -13 -22 -15 -34 -2 -12 -12
-31 -22 -43 -19 -21 -51 -82 -51 -97 0 -4 11 -6 25 -2 17 4 26 2 29 -7 2 -8
11 -41 21 -74 9 -33 21 -72 27 -87 8 -22 6 -30 -11 -47 -19 -19 -28 -41 -17
-41 3 0 16 4 30 10 21 8 27 6 36 -10 15 -28 12 -33 -15 -26 -18 5 -27 2 -31
-9 -4 -9 -20 -23 -36 -31 -16 -9 -27 -18 -24 -22 4 -3 12 0 18 6 14 14 58 16
58 3 0 -23 -14 -41 -32 -41 -10 0 -33 -7 -50 -16 -22 -12 -50 -15 -106 -11
-66 3 -78 7 -98 30 -19 22 -21 32 -14 58 5 18 16 39 25 49 16 18 78 40 113 40
31 0 36 17 13 42 -22 23 -28 72 -11 83 6 3 10 -3 10 -15 0 -12 5 -31 11 -42 9
-16 13 -18 19 -7 5 8 -1 30 -16 58 -13 25 -24 56 -24 69 0 12 -4 30 -9 40 -6
9 -17 40 -26 67 -10 35 -25 57 -48 72 -49 34 -80 65 -99 98 -9 17 -25 35 -36
40 -11 6 -27 17 -36 24 -9 7 -22 11 -30 8 -17 -7 -56 20 -56 39 0 8 -4 14 -10
14 -5 0 -10 -6 -10 -14 0 -30 -139 -48 -243 -32 -37 6 -51 13 -59 32 -8 17
-19 24 -38 24 -15 0 -30 3 -34 7 -9 9 -100 3 -106 -7 -3 -4 -22 -2 -42 5 -37
12 -38 12 -32 -10 5 -19 0 -27 -27 -40 -29 -15 -44 -16 -133 -6 -83 9 -116 8
-186 -4 -47 -8 -117 -15 -156 -15 -69 0 -72 1 -76 25 -4 17 0 29 11 35 10 6
11 10 4 10 -7 0 -13 10 -13 23 0 23 -1 23 -127 25 -232 2 -834 22 -1108 37
-330 18 -471 27 -475 32 -5 5 245 -4 340 -12 94 -9 572 -26 1154 -41 216 -5
219 -5 213 15 -2 11 0 22 7 24 6 3 -3 19 -22 40 -25 26 -32 40 -27 56 7 23 13
25 33 12 11 -7 11 -9 -2 -14 -13 -5 -14 -11 -4 -33 10 -22 13 -24 23 -10 7 9
16 12 20 8 5 -4 5 -2 1 5 -3 6 -2 14 4 18 10 6 -11 35 -25 35 -3 0 -29 15 -58
33 -74 48 -188 167 -224 234 -47 87 -63 123 -63 141 0 12 -4 23 -10 27 -6 4
-6 15 0 31 12 31 12 37 1 30 -4 -3 -13 5 -19 19 -6 14 -7 25 -2 27 5 2 3 21
-5 43 -7 22 -11 50 -8 63 3 13 1 22 -7 22 -6 0 -9 4 -5 9 3 5 2 12 -3 15 -5 3
-107 8 -228 11 -601 15 -956 27 -1119 35 -99 6 -215 10 -257 10 -44 0 -78 4
-78 10 0 5 12 7 28 5 28 -5 383 -18 922 -35 366 -12 760 -13 743 -2 -16 10
-33 120 -20 125 6 2 11 14 13 28 1 13 0 18 -2 12 -3 -7 -10 -13 -16 -13 -6 0
-4 8 5 18 17 19 23 62 9 62 -13 0 -41 90 -53 172 -10 65 -9 84 4 116 14 34 14
39 0 48 -19 12 -8 42 38 104 19 25 34 49 34 55 0 5 14 19 32 30 18 11 32 25
33 31 0 6 14 17 30 24 17 7 30 16 30 21 0 5 -53 9 -117 9 -65 0 -179 3 -253 5
-74 2 -306 7 -515 10 -209 3 -543 8 -742 12 l-363 6 0 -416z m1804 -841 c15
-4 26 -9 24 -11 -5 -5 -101 19 -117 30 -6 3 -9 11 -5 16 3 6 19 2 37 -9 18
-11 45 -22 61 -26z m306 -564 c0 -15 -2 -15 -10 -2 -13 20 -13 33 0 25 6 -3
10 -14 10 -23z m-1987 -669 c-13 -2 -33 -2 -45 0 -13 2 -3 4 22 4 25 0 35 -2
23 -4z m217 -18 l115 -14 -95 6 c-106 5 -228 20 -170 21 19 0 87 -6 150 -13z
m270 -25 l55 -7 -50 -1 c-27 0 -72 3 -100 8 l-50 7 45 1 c25 0 70 -3 100 -8z
m185 -15 c6 -2 -21 -4 -58 -4 -38 -1 -66 3 -63 8 5 7 96 5 121 -4z"/>
<path d="M2089 2842 c-20 -10 -42 -23 -50 -30 -40 -34 -110 -82 -119 -82 -13
0 -42 -57 -38 -78 1 -9 -3 -27 -10 -39 -23 -41 -32 -73 -22 -73 6 0 15 11 20
25 12 32 24 32 16 0 -5 -19 -3 -23 9 -19 8 4 15 17 15 31 0 25 38 105 53 111
4 2 7 10 7 18 0 8 9 24 20 36 26 28 26 6 0 -42 -67 -122 -81 -160 -60 -160 14
0 -21 -49 -35 -50 -5 0 -10 -11 -10 -24 0 -17 4 -22 15 -18 12 5 13 3 3 -9
-12 -15 -7 -59 7 -59 4 0 21 61 39 135 18 74 36 135 41 135 4 0 20 21 36 48
33 57 74 108 74 92 0 -7 -9 -24 -20 -39 -10 -16 -36 -68 -55 -117 -33 -81 -36
-95 -31 -159 8 -112 56 -250 100 -288 12 -10 21 -22 21 -26 0 -3 10 -17 23
-31 12 -13 22 -29 22 -36 0 -7 8 -10 20 -7 15 4 19 2 15 -10 -8 -19 40 -57 71
-57 13 0 24 -5 24 -11 0 -23 20 5 59 84 23 45 41 87 41 92 0 6 9 21 20 35 11
14 20 28 20 33 0 12 -73 77 -87 77 -7 0 -26 12 -42 28 -17 15 -48 41 -70 57
-39 29 -48 42 -56 84 -4 22 10 37 20 21 3 -5 13 -10 20 -10 11 0 12 6 5 25 -6
16 -6 25 0 25 6 0 10 -4 10 -9 0 -6 12 -6 32 -1 l31 10 -26 -28 c-21 -23 -23
-29 -12 -39 8 -7 16 -13 18 -13 2 0 17 27 31 61 26 57 29 60 59 57 31 -3 32
-5 31 -45 0 -25 -8 -51 -17 -61 -10 -10 -17 -24 -17 -30 0 -16 50 -72 64 -72
14 0 72 -50 59 -50 -4 0 0 -7 11 -15 14 -10 35 -12 81 -8 60 5 65 4 89 -22 29
-31 32 -51 14 -89 -13 -31 4 -56 53 -76 16 -7 26 -16 23 -21 -3 -5 1 -9 9 -9
11 0 13 -7 9 -22 -4 -16 -2 -19 8 -13 8 5 11 4 7 -2 -3 -5 -3 -23 2 -39 7 -28
9 -29 70 -29 l63 -1 -8 136 c-4 74 -7 159 -6 188 0 39 -3 52 -15 52 -8 0 -11
5 -8 10 4 6 14 9 23 8 21 -4 22 22 2 33 -46 24 -108 49 -123 49 -51 0 -106 48
-107 92 0 19 -7 29 -22 34 -32 10 -78 46 -78 61 0 7 -6 10 -13 7 -7 -2 -23 9
-35 26 -13 16 -29 30 -37 30 -8 0 -15 6 -15 13 0 7 -12 20 -27 29 -16 9 -45
34 -67 55 l-39 38 -111 3 c-93 3 -117 0 -147 -16z"/>
<path d="M2500 2823 c14 -15 49 -51 78 -80 28 -30 52 -59 52 -67 0 -18 36 -49
52 -44 7 3 18 -1 25 -8 7 -7 32 -15 55 -19 45 -8 78 -24 78 -39 0 -4 -11 -1
-25 8 -27 18 -90 22 -100 6 -3 -5 2 -10 13 -10 10 0 27 -9 37 -20 29 -32 158
-92 167 -78 4 7 2 18 -4 25 -10 12 -4 17 15 14 4 0 6 4 5 10 -2 6 3 14 11 17
8 3 11 0 7 -7 -9 -14 9 -14 35 0 12 6 28 7 37 3 21 -9 51 -6 66 7 6 5 28 23
50 39 21 17 34 30 27 30 -6 0 -11 5 -11 11 0 6 6 9 13 6 6 -2 31 15 54 38 39
38 72 50 89 32 9 -9 37 29 67 91 l25 52 -23 0 c-13 0 -27 -5 -31 -11 -5 -8 -9
-7 -15 4 -8 14 -61 16 -441 17 l-432 1 24 -28z m833 -30 c-7 -2 -19 -2 -25 0
-7 3 -2 5 12 5 14 0 19 -2 13 -5z"/>
<path d="M3433 2823 c-3 -10 -8 -21 -9 -24 -3 -5 20 -5 48 0 4 0 12 10 18 21
10 18 8 20 -20 20 -20 0 -33 -6 -37 -17z"/>
<path d="M3533 2815 c-35 -49 -48 -62 -80 -78 -17 -9 -38 -14 -47 -11 -11 4
-13 0 -9 -15 11 -41 -60 -121 -106 -121 -11 0 -26 -8 -33 -18 -13 -18 -41 -35
-103 -63 -16 -8 -46 -28 -65 -46 -19 -19 -41 -31 -48 -28 -7 2 -22 -5 -33 -16
-11 -11 -24 -17 -29 -14 -5 3 -11 1 -14 -4 -4 -5 -1 -13 4 -16 17 -11 56 3 90
31 l31 26 -12 -25 c-11 -24 -22 -32 -81 -56 -24 -9 -28 -17 -29 -48 0 -21 -1
-102 -3 -180 l-2 -143 188 0 c110 0 188 4 188 9 0 5 25 40 54 78 30 37 52 70
47 73 -13 9 -7 50 7 50 9 0 12 7 9 20 -5 19 27 122 54 171 7 13 12 25 11 27
-1 1 -2 10 -2 19 0 15 2 14 15 -3 19 -25 19 -34 0 -34 -8 0 -15 -9 -15 -20 0
-11 6 -20 13 -20 9 0 8 -3 -2 -9 -9 -6 -12 -18 -7 -36 6 -22 0 -39 -29 -81
-19 -30 -30 -54 -23 -54 6 0 36 14 66 31 40 22 64 30 88 27 19 -2 34 -3 34 -3
0 1 -9 12 -20 25 -11 13 -20 28 -20 34 0 6 5 4 11 -4 8 -11 9 -9 3 10 -11 39
-5 102 11 120 8 9 15 26 15 38 0 26 9 27 55 8 29 -12 36 -12 45 -1 9 11 6 19
-12 34 -13 12 -38 34 -56 51 -19 17 -43 35 -54 41 -14 8 -17 14 -8 24 20 24
61 24 97 -1 19 -12 47 -29 63 -36 17 -7 30 -16 30 -20 0 -5 5 -8 10 -8 13 0
50 -37 50 -49 0 -5 6 -11 13 -14 10 -3 10 -9 0 -26 -7 -11 -13 -22 -13 -24 0
-2 26 -9 58 -16 31 -7 72 -17 90 -23 19 -5 57 -13 85 -18 29 -4 61 -11 72 -15
16 -7 18 -6 8 6 -7 7 -13 21 -13 31 0 26 -23 98 -32 98 -6 0 2 -35 17 -73 5
-13 3 -16 -8 -12 -8 4 -27 35 -42 71 -20 46 -32 64 -46 64 -11 0 -19 5 -19 11
0 6 -6 9 -12 6 -7 -2 -19 3 -26 12 -11 14 -13 11 -8 -22 3 -22 1 -35 -5 -32
-5 4 -9 20 -9 37 0 25 -10 41 -46 75 -26 24 -55 43 -65 43 -20 0 -99 65 -99
81 0 5 7 9 15 9 8 0 15 5 15 10 0 6 -6 10 -14 10 -8 0 -17 6 -19 13 -4 9 -6 9
-6 -1 -1 -21 -21 -3 -21 19 0 18 -8 19 -100 19 -94 0 -100 -1 -117 -25z m504
-287 c-3 -8 -6 -5 -6 6 -1 11 2 17 5 13 3 -3 4 -12 1 -19z m-507 -41 c0 -18
-2 -19 -10 -7 -13 20 -13 43 0 35 6 -3 10 -16 10 -28z m460 23 c0 -5 -5 -10
-11 -10 -5 0 -7 5 -4 10 3 6 8 10 11 10 2 0 4 -4 4 -10z m80 -60 c6 -21 5 -27
-4 -24 -6 2 -12 12 -13 22 -1 9 -4 28 -8 42 -6 22 -5 23 5 7 7 -10 16 -31 20
-47z m-40 19 c0 -5 -4 -9 -10 -9 -5 0 -10 7 -10 16 0 8 5 12 10 9 6 -3 10 -10
10 -16z m-881 -165 c15 -34 14 -48 -7 -68 -22 -19 -76 -13 -104 12 -24 20 -23
29 10 61 35 35 84 33 101 -5z m271 -164 c0 -5 -2 -10 -4 -10 -3 0 -8 5 -11 10
-3 6 -1 10 4 10 6 0 11 -4 11 -10z m-278 -44 c13 -19 9 -42 -9 -57 -35 -28
-58 -36 -80 -28 -30 11 -36 25 -18 42 8 9 15 20 15 26 0 5 10 17 22 25 23 16
57 12 70 -8z"/>
<path d="M3090 2280 c0 -5 5 -10 10 -10 6 0 10 5 10 10 0 6 -4 10 -10 10 -5 0
-10 -4 -10 -10z"/>
<path d="M4000 2826 c0 -14 21 -46 30 -46 20 0 156 -156 196 -226 6 -10 19
-19 28 -19 10 0 24 -8 31 -19 19 -25 44 -112 47 -161 3 -38 5 -40 41 -46 37
-6 58 3 37 16 -6 4 -8 10 -5 15 3 5 1 11 -5 15 -6 4 -8 11 -4 16 3 5 1 15 -4
22 -6 7 -18 32 -28 57 -10 25 -26 56 -36 69 -10 13 -15 28 -12 33 7 12 44 -30
44 -50 0 -9 6 -23 13 -31 7 -9 19 -34 26 -56 7 -22 20 -48 28 -57 8 -9 12 -21
9 -26 -3 -6 12 -29 33 -51 32 -33 45 -40 64 -36 15 4 28 1 37 -10 7 -9 45 -36
82 -61 47 -30 68 -50 66 -62 -1 -9 7 -45 17 -79 l20 -63 763 0 762 0 0 419 0
419 -26 5 c-15 2 -187 5 -383 6 -196 1 -697 5 -1113 8 -417 3 -758 3 -758 -1z
m259 -52 c18 -9 30 -18 28 -20 -6 -7 -54 13 -62 25 -8 15 -4 14 34 -5z m-112
0 c-3 -3 -12 -4 -19 -1 -8 3 -5 6 6 6 11 1 17 -2 13 -5z m57 -10 c5 -12 2 -15
-10 -10 -8 3 -20 6 -25 6 -5 0 -9 5 -9 10 0 16 37 11 44 -6z m-111 -6 c12 -6
28 -18 36 -25 34 -34 122 -93 131 -88 6 3 7 -1 4 -9 -6 -16 -30 -22 -36 -8 -1
4 -24 24 -50 45 -26 21 -53 44 -60 50 -7 7 -24 21 -38 30 -28 19 -20 23 13 5z
m167 -27 c0 -4 -3 -11 -7 -14 -8 -9 -34 13 -28 24 6 9 35 1 35 -10z m50 -1 c0
-5 -7 -10 -15 -10 -8 0 -15 5 -15 10 0 6 7 10 15 10 8 0 15 -4 15 -10z m1643
-7 c-7 -2 -19 -2 -25 0 -7 3 -2 5 12 5 14 0 19 -2 13 -5z m-1669 -41 c4 -2 2
-8 -5 -12 -11 -7 -39 10 -39 24 0 5 25 -2 44 -12z m-4 -92 c0 -5 -4 -10 -10
-10 -5 0 -10 5 -10 10 0 6 5 10 10 10 6 0 10 -4 10 -10z"/>
<path d="M2530 2716 c0 -2 7 -7 16 -10 8 -3 12 -2 9 4 -6 10 -25 14 -25 6z"/>
<path d="M3945 2680 c-2 -4 11 -21 30 -38 19 -18 36 -28 39 -24 2 4 -11 22
-30 39 -19 17 -36 27 -39 23z"/>
<path d="M3209 2563 c-13 -16 -12 -17 4 -4 16 13 21 21 13 21 -2 0 -10 -8 -17
-17z"/>
<path d="M2740 2505 c7 -8 20 -15 29 -15 13 1 13 3 -3 15 -26 19 -42 19 -26 0z"/>
<path d="M3058 2493 c6 -2 18 -2 25 0 6 3 1 5 -13 5 -14 0 -19 -2 -12 -5z"/>
<path d="M2966 2463 c-4 -9 4 -13 23 -13 33 0 61 9 61 19 0 12 -80 7 -84 -6z"/>
<path d="M1958 2394 c-2 -20 1 -38 7 -42 6 -4 22 -41 36 -82 17 -53 29 -76 42
-78 16 -3 16 1 -7 45 -14 26 -26 57 -26 68 -1 11 -7 31 -15 45 -8 14 -14 37
-15 53 0 39 -17 33 -22 -9z"/>
<path d="M3780 2395 c0 -9 7 -15 16 -13 10 2 19 -2 21 -9 3 -9 -4 -10 -29 -2
-18 5 -35 9 -37 9 -2 0 4 -11 13 -24 9 -14 13 -31 10 -39 -7 -19 22 -47 47
-47 11 0 22 7 25 15 4 8 10 12 16 9 5 -3 16 2 23 12 13 17 16 17 25 4 5 -8 10
-26 10 -40 0 -31 43 -50 103 -48 32 1 37 4 37 25 0 20 5 24 23 21 17 -2 23
-11 25 -38 2 -19 7 -38 11 -43 12 -12 51 -17 51 -6 0 6 5 7 10 4 6 -4 8 -11 5
-16 -4 -5 1 -9 9 -9 11 0 16 9 16 29 0 24 6 31 31 40 18 6 43 11 55 11 14 0
24 6 24 15 0 16 -73 39 -101 32 -10 -3 -19 -1 -21 3 -4 9 -141 59 -183 66 -16
3 -46 7 -65 9 -19 1 -64 12 -100 24 -36 11 -66 21 -67 21 -2 0 -3 -7 -3 -15z"/>
<path d="M2425 2360 c7 -11 45 -33 45 -26 0 2 -7 12 -16 20 -17 18 -39 22 -29
6z"/>
<path d="M3711 2328 c-9 -24 -8 -33 1 -40 8 -4 14 -2 16 5 2 7 7 24 12 40 13
40 -15 36 -29 -5z"/>
<path d="M1840 2341 c0 -6 4 -13 10 -16 6 -3 7 1 4 9 -7 18 -14 21 -14 7z"/>
<path d="M1940 2299 c0 -14 9 -34 20 -44 20 -18 20 -18 9 16 -16 46 -29 59
-29 28z"/>
<path d="M1860 2301 c0 -6 4 -13 10 -16 6 -3 7 1 4 9 -7 18 -14 21 -14 7z"/>
<path d="M2556 2271 c-3 -4 -18 -11 -34 -14 -17 -4 -33 -16 -40 -31 -6 -14
-38 -67 -72 -117 -33 -51 -60 -96 -60 -100 0 -14 343 -16 358 -1 7 6 9 12 4
12 -5 0 -9 14 -9 31 0 20 -7 37 -19 45 -10 7 -25 19 -32 25 -12 10 -34 14 -96
18 -15 1 -16 4 -7 15 10 12 8 15 -11 18 -25 3 -34 42 -10 44 6 1 15 3 20 4 4
1 22 1 40 0 36 -2 36 -2 22 34 -9 25 -43 36 -54 17z"/>
<path d="M4350 2251 c0 -24 -28 -34 -67 -25 -15 4 -25 3 -21 -1 4 -5 3 -14 -2
-20 -7 -9 -1 -24 20 -51 46 -61 50 -64 65 -64 11 0 10 5 -5 20 -11 11 -20 24
-20 29 0 16 21 24 33 12 6 -6 18 -11 27 -11 9 0 26 -11 38 -25 23 -27 29 -40
12 -30 -5 3 -10 2 -10 -2 0 -5 14 -14 31 -20 26 -10 30 -10 25 2 -3 10 6 20
24 30 37 19 56 19 64 -1 8 -21 -1 -34 -24 -34 -10 0 -21 -4 -24 -8 -7 -12 33
-44 47 -39 7 2 24 -2 40 -10 18 -9 27 -10 27 -2 0 6 -9 13 -20 16 -24 6 -25
16 -5 33 17 14 20 40 5 40 -5 0 -10 -7 -10 -16 0 -8 -5 -12 -11 -9 -6 4 -8 13
-5 20 3 8 -3 24 -13 37 -10 13 -20 31 -24 41 -3 9 -16 17 -28 17 -12 0 -32 10
-44 23 -39 38 -53 47 -74 47 -11 0 -23 5 -26 10 -10 17 -25 11 -25 -9z"/>
<path d="M3595 2210 c-3 -6 1 -7 9 -4 18 7 21 14 7 14 -6 0 -13 -4 -16 -10z"/>
<path d="M3660 2198 c-14 -7 -31 -18 -38 -25 -7 -7 -20 -13 -28 -13 -8 0 -25
-9 -37 -21 -12 -11 -31 -25 -41 -31 -16 -9 -18 -8 -12 7 5 15 4 16 -9 5 -9 -7
-13 -21 -10 -31 4 -11 2 -19 -4 -19 -6 0 -11 5 -11 12 0 6 -6 3 -14 -7 -8 -11
-12 -23 -10 -27 3 -5 0 -8 -5 -8 -6 0 -11 -7 -11 -15 0 -8 -5 -15 -11 -15 -5
0 -7 -4 -4 -10 3 -5 19 -10 35 -10 23 0 33 7 45 30 16 31 29 37 40 20 11 -18
81 -11 106 10 13 10 20 19 15 20 -5 0 -3 7 4 15 7 9 11 18 8 21 -6 6 -81 -36
-86 -48 -4 -9 -32 -11 -32 -2 0 10 24 28 63 48 42 22 69 15 75 -18 4 -18 -29
-56 -47 -56 -5 0 -11 -5 -13 -11 -4 -12 -63 -16 -99 -6 -20 5 -28 3 -33 -8 -5
-13 12 -15 114 -15 100 0 120 3 120 15 0 8 6 15 14 15 8 0 19 13 24 29 12 35
49 58 65 42 6 -6 36 -11 67 -11 102 0 122 -8 154 -57 l29 -45 66 7 c67 7 125
7 261 0 66 -3 69 -3 30 5 -56 12 -90 29 -90 47 0 17 -20 17 -20 1 -1 -8 -6 -6
-14 4 -7 10 -17 14 -21 10 -5 -4 -5 1 -2 10 6 16 -18 26 -73 33 -3 0 -11 4
-17 8 -7 5 -13 6 -13 3 0 -3 -16 2 -35 10 -20 8 -41 12 -47 8 -7 -5 -8 -2 -3
6 6 10 4 12 -9 7 -18 -7 -103 10 -121 24 -5 4 -28 10 -50 14 -22 4 -45 12 -52
17 -19 15 -185 19 -213 6z"/>
<path d="M1925 2139 c4 -30 11 -69 15 -86 8 -31 -3 -48 -13 -20 -2 6 -8 9 -12
5 -4 -4 -5 -13 -2 -20 5 -15 208 -26 206 -11 0 4 -46 48 -100 97 l-100 89 6
-54z"/>
<path d="M3990 2170 c0 -5 5 -10 11 -10 5 0 7 5 4 10 -3 6 -8 10 -11 10 -2 0
-4 -4 -4 -10z"/>
<path d="M4044 2155 c11 -8 27 -15 35 -15 13 1 12 4 -3 15 -11 8 -27 15 -35
15 -13 -1 -12 -4 3 -15z"/>
<path d="M4589 2150 c13 -11 20 -20 16 -20 -3 0 0 -7 9 -15 25 -25 47 -17 28
11 -10 15 -55 44 -67 44 -5 -1 1 -10 14 -20z"/>
<path d="M3855 2021 c-16 -3 -31 -13 -33 -21 -2 -13 11 -16 73 -16 41 -1 75 1
75 3 0 3 -10 13 -22 24 -24 19 -42 21 -93 10z"/>
<path d="M3985 2000 c3 -5 11 -10 16 -10 6 0 7 5 4 10 -3 6 -11 10 -16 10 -6
0 -7 -4 -4 -10z"/>
<path d="M1925 1943 c10 -73 35 -155 56 -185 11 -14 19 -31 19 -37 0 -6 18
-45 40 -88 39 -77 99 -153 120 -153 7 0 9 -8 5 -19 -9 -29 73 -95 122 -98 l36
-2 -28 29 c-33 34 -23 41 11 9 24 -23 67 -19 58 5 -7 18 54 45 115 53 57 6
199 -27 242 -58 36 -25 180 -166 206 -202 12 -17 20 -33 18 -37 -2 -4 28 -8
67 -9 39 -1 79 -6 89 -11 31 -17 165 -8 154 10 -7 11 25 71 35 65 4 -3 11 2
14 11 3 9 13 14 20 11 8 -3 20 0 26 8 8 9 4 30 -15 80 -14 37 -25 85 -25 106
0 22 -4 39 -9 39 -5 0 -8 14 -6 32 3 17 1 36 -4 42 -5 6 -9 47 -9 91 -1 63 -4
82 -18 92 -15 11 -16 16 -5 37 8 13 11 28 8 34 -4 5 3 19 14 30 13 15 15 22 7
22 -8 1 -6 6 6 15 11 8 20 31 23 58 4 37 2 45 -13 49 -11 2 -92 6 -181 7
l-163 3 -2 -39 c-1 -21 -2 -67 -2 -103 -1 -52 -4 -65 -18 -68 -23 -4 -32 50
-24 137 l7 68 -60 2 -59 2 -17 -56 c-9 -34 -23 -58 -33 -61 -9 -3 -28 -11 -42
-17 -29 -12 -35 -14 -53 -16 -8 0 -25 -10 -38 -22 -13 -12 -33 -25 -44 -29
-26 -10 -134 7 -162 26 -12 7 -28 14 -35 14 -19 0 -60 52 -55 71 3 12 -2 15
-22 12 -14 -3 -33 -7 -41 -9 -22 -7 -23 -6 -26 13 -2 10 -8 19 -14 21 -7 3
-27 17 -45 33 -32 28 -35 29 -144 29 l-112 0 6 -47z m615 -223 c0 -5 -2 -10
-4 -10 -3 0 -8 5 -11 10 -3 6 -1 10 4 10 6 0 11 -4 11 -10z m730 -6 c0 -3 -7
-12 -15 -20 -12 -13 -15 -13 -15 -1 0 7 3 17 7 20 8 8 23 9 23 1z m-660 -30
c0 -2 -9 -4 -20 -4 -11 0 -20 4 -20 9 0 5 9 7 20 4 11 -3 20 -7 20 -9z m640
-46 c0 -16 -3 -19 -11 -11 -6 6 -8 16 -5 22 11 17 16 13 16 -11z m-1073 -134
c-3 -3 -12 -4 -19 -1 -8 3 -5 6 6 6 11 1 17 -2 13 -5z m54 -82 c5 -2 6 -8 3
-14 -7 -11 -54 54 -54 74 0 7 10 -3 21 -22 12 -19 25 -37 30 -38z m35 -49 c-7
-7 -26 7 -26 19 0 6 6 6 15 -2 9 -7 13 -15 11 -17z"/>
<path d="M2373 1982 c-28 -3 -58 -32 -32 -32 6 0 7 -5 4 -10 -3 -6 1 -13 9
-16 9 -3 16 -12 16 -19 0 -8 14 -21 32 -29 37 -19 41 -20 33 -6 -4 7 3 8 22 3
15 -4 36 -7 45 -7 30 0 30 -26 0 -27 l-27 0 24 -10 c27 -11 121 -1 121 12 0 5
-9 9 -21 9 -37 0 -14 25 32 33 37 7 48 14 67 48 17 29 20 40 10 44 -16 5 -290
11 -335 7z m137 -82 c0 -5 -5 -10 -11 -10 -5 0 -7 5 -4 10 3 6 8 10 11 10 2 0
4 -4 4 -10z m50 -52 c0 -6 -6 -5 -15 2 -8 7 -15 14 -15 16 0 2 7 1 15 -2 8 -4
15 -11 15 -16z"/>
<path d="M2225 1970 c3 -5 11 -10 16 -10 6 0 7 5 4 10 -3 6 -11 10 -16 10 -6
0 -7 -4 -4 -10z"/>
<path d="M3500 1960 c0 -10 73 -66 83 -62 4 1 7 -2 7 -8 0 -5 -4 -10 -9 -10
-6 0 -6 -13 -1 -32 14 -56 18 -118 9 -124 -5 -3 -7 -9 -4 -14 10 -17 -25 -69
-56 -86 -35 -18 -128 -21 -158 -5 -11 6 -23 11 -27 11 -12 0 5 -90 21 -113 8
-12 15 -36 15 -54 0 -18 2 -33 5 -33 9 0 45 40 45 50 0 6 8 13 18 17 9 3 24
12 34 20 10 9 41 15 83 15 l66 1 -4 34 c-4 27 -2 33 9 29 8 -3 14 1 14 9 0 8
-4 15 -9 15 -5 0 -14 13 -19 29 -14 38 14 121 40 121 10 0 18 5 18 10 0 6 6
10 14 10 8 0 16 7 20 15 3 8 15 15 26 15 21 0 21 0 -1 32 -13 18 -24 49 -25
72 l-2 41 -106 1 c-58 1 -106 -2 -106 -6z"/>
<path d="M3830 1952 c0 -10 8 -26 18 -35 24 -22 56 -23 48 -2 -6 17 19 21 29
5 10 -17 36 -11 67 15 16 14 26 25 21 25 -4 1 -47 3 -95 6 -82 5 -88 5 -88
-14z"/>
<path d="M4076 1935 c-7 -26 -68 -64 -155 -96 -24 -9 -39 -19 -32 -23 15 -9
14 -27 -1 -23 -6 1 -14 -6 -16 -15 -2 -10 1 -18 6 -18 13 0 82 -61 82 -72 0
-4 -8 -8 -19 -8 -29 0 -60 -92 -47 -141 l10 -38 24 40 c13 22 21 46 19 53 -4
9 0 12 13 9 19 -5 53 33 44 49 -3 5 0 15 6 23 6 8 9 19 5 25 -3 6 3 10 17 10
21 1 22 2 5 14 -16 13 -16 14 7 30 14 9 32 16 40 16 8 0 18 5 21 10 9 15 -38
12 -54 -2 -11 -11 -13 -10 -7 5 3 10 6 22 6 27 0 4 22 10 50 14 53 7 77 30 59
57 -12 19 -11 59 1 59 6 0 10 5 10 10 0 6 -20 10 -44 10 -38 0 -45 -3 -50 -25z
m-136 -129 c0 -11 -19 -15 -25 -6 -3 5 1 10 9 10 9 0 16 -2 16 -4z m41 -93
c-12 -20 -14 -14 -5 12 4 9 9 14 11 11 3 -2 0 -13 -6 -23z"/>
<path d="M4261 1947 c-8 -11 -5 -16 14 -25 24 -11 55 -7 55 7 0 27 -50 40 -69
18z"/>
<path d="M4360 1949 c0 -4 4 -11 10 -14 12 -7 -13 -60 -32 -69 -7 -4 -2 -4 12
-1 14 2 55 5 91 5 82 0 106 14 92 56 -10 29 -10 29 -91 30 -45 0 -82 -3 -82
-7z"/>
<path d="M4763 1952 c-20 -3 -23 -9 -21 -51 3 -55 -24 -100 -59 -101 -13 0
-23 -4 -23 -10 0 -5 -6 -10 -14 -10 -8 0 -36 -11 -63 -24 -26 -13 -73 -32
-103 -42 -30 -10 -62 -24 -70 -30 -8 -7 -44 -26 -80 -43 -128 -60 -196 -103
-248 -157 -38 -39 -52 -62 -49 -75 3 -10 1 -16 -4 -13 -5 3 -8 -8 -7 -25 2
-16 -1 -29 -7 -28 -5 1 -9 7 -7 14 2 7 -2 13 -8 13 -11 0 -11 0 -15 -48 -1
-17 -8 -39 -15 -47 -6 -8 -9 -18 -6 -24 3 -5 0 -21 -8 -36 -9 -18 -16 -22 -20
-13 -3 7 -4 4 -1 -7 3 -11 -2 -33 -10 -49 -9 -16 -13 -32 -10 -35 7 -6 2100
-10 2258 -4 l107 4 0 418 -1 417 -702 3 c-386 2 -722 4 -747 5 -25 0 -55 0
-67 -2z"/>
<path d="M3764 1937 c-7 -19 13 -67 28 -67 12 0 9 32 -7 60 -12 23 -14 23 -21
7z"/>
<path d="M3457 1929 c7 -7 15 -10 18 -7 3 3 -2 9 -12 12 -14 6 -15 5 -6 -5z"/>
<path d="M3506 1903 c-9 -9 -7 -25 2 -19 14 8 52 -68 52 -103 0 -38 -20 -90
-44 -114 -10 -9 -12 -17 -6 -17 6 0 23 12 38 27 23 24 27 35 27 88 0 79 -43
164 -69 138z"/>
<path d="M4186 1897 c5 -15 44 -41 44 -29 0 8 -36 42 -45 42 -2 0 -2 -6 1 -13z"/>
<path d="M4675 1889 c-5 -15 -10 -18 -18 -10 -7 7 -15 5 -26 -8 -9 -10 -29
-25 -46 -34 l-30 -16 43 -1 c28 0 45 5 48 14 3 8 14 16 25 19 13 3 19 14 19
31 0 31 -6 33 -15 5z"/>
<path d="M3384 1889 c-3 -6 0 -15 7 -20 11 -7 9 -10 -8 -15 -13 -4 -23 -9 -24
-13 -9 -49 -5 -119 7 -136 13 -18 18 -18 61 -6 91 24 108 71 51 138 -54 63
-79 76 -94 52z"/>
<path d="M4570 1870 c0 -5 5 -10 10 -10 6 0 10 5 10 10 0 6 -4 10 -10 10 -5 0
-10 -4 -10 -10z"/>
<path d="M4205 1820 c-3 -5 -1 -10 4 -10 6 0 11 5 11 10 0 6 -2 10 -4 10 -3 0
-8 -4 -11 -10z"/>
<path d="M3765 1810 c-4 -6 -11 -8 -16 -4 -12 7 -65 -48 -72 -76 -3 -11 0 -20
6 -20 6 0 2 -6 -8 -14 -11 -8 -16 -19 -12 -30 6 -14 12 -11 38 19 17 19 37 35
45 35 8 0 14 5 14 10 0 6 18 10 40 10 35 0 40 3 40 24 0 35 -59 71 -75 46z"/>
<path d="M4165 1800 c3 -5 8 -10 11 -10 2 0 4 5 4 10 0 6 -5 10 -11 10 -5 0
-7 -4 -4 -10z"/>
<path d="M4455 1799 c-16 -5 -36 -7 -42 -4 -7 2 -13 -1 -13 -7 0 -6 -3 -8 -7
-5 -8 8 -33 -12 -33 -26 0 -7 4 -7 12 1 17 17 58 15 64 -3 6 -14 11 -13 41 5
19 11 41 20 49 20 9 0 12 5 8 12 -5 8 -2 9 9 5 9 -3 19 -2 22 3 8 12 -69 12
-110 -1z"/>
<path d="M4130 1790 c0 -5 5 -10 10 -10 6 0 10 5 10 10 0 6 -4 10 -10 10 -5 0
-10 -4 -10 -10z"/>
<path d="M4097 1643 c-35 -35 -43 -50 -35 -60 8 -10 15 -7 31 15 12 15 28 32
37 39 8 7 11 13 6 13 -5 0 -1 9 9 20 38 42 -5 18 -48 -27z"/>
<path d="M3781 1659 c-27 -16 -31 -23 -20 -30 11 -7 12 -12 2 -28 -10 -16 -9
-20 9 -24 13 -4 17 -10 12 -18 -5 -8 -3 -10 5 -5 7 5 10 10 7 13 -2 3 8 29 24
59 32 62 22 70 -39 33z"/>
<path d="M4235 1654 c-36 -18 -64 -44 -48 -44 6 0 16 7 23 15 7 8 18 15 25 15
7 0 18 7 25 15 16 19 12 19 -25 -1z"/>
<path d="M4026 1554 c-9 -8 -13 -21 -9 -27 4 -8 1 -7 -9 1 -22 17 -33 -1 -18
-29 12 -21 12 -21 46 12 19 19 30 35 24 37 -5 2 -8 8 -4 13 9 15 -13 10 -30
-7z"/>
<path d="M3711 1543 c-1 -6 -4 -20 -7 -30 -5 -17 -5 -17 6 0 6 10 9 23 6 30
-3 9 -5 9 -5 0z"/>
<path d="M3780 1515 c-2 -11 -3 -30 -4 -42 -1 -13 -5 -23 -11 -24 -5 0 -18 -6
-29 -11 -17 -9 -18 -7 -14 16 4 18 1 26 -8 26 -18 0 -18 -21 0 -54 l13 -26 47
43 c44 42 61 75 32 64 -9 -4 -17 1 -19 11 -4 14 -5 14 -7 -3z"/>
<path d="M3600 1496 c0 -9 5 -16 10 -16 6 0 10 4 10 9 0 6 -4 13 -10 16 -5 3
-10 -1 -10 -9z"/>
<path d="M3960 1485 c-7 -16 -19 -42 -27 -58 -8 -15 -12 -31 -8 -36 3 -5 0
-13 -6 -16 -5 -4 -8 -13 -5 -21 3 -8 0 -14 -5 -14 -6 0 -9 9 -6 20 7 27 -10
26 -18 -1 -5 -14 -2 -25 6 -30 11 -7 11 -9 1 -9 -7 0 -10 -4 -7 -10 3 -6 -1
-7 -9 -4 -10 4 -16 1 -16 -9 0 -9 -3 -22 -6 -31 -11 -29 26 -18 38 12 11 24
53 97 86 148 22 34 25 46 15 53 -6 3 -12 13 -15 21 -4 10 -9 6 -18 -15z"/>
<path d="M3484 1474 c-51 -34 -50 -32 -35 -47 10 -9 16 -8 29 10 16 20 36 27
71 24 11 -1 10 -5 -4 -21 -21 -23 -11 -26 28 -7 37 16 34 35 -8 53 -43 18 -35
19 -81 -12z"/>
<path d="M3870 1466 c0 -20 -107 -106 -131 -106 -20 0 -26 -24 -9 -35 30 -18
-20 -57 -105 -82 -18 -5 -35 -20 -44 -38 -8 -17 -18 -37 -22 -45 -4 -9 -18
-14 -33 -13 -34 2 -24 -14 14 -24 39 -10 192 -4 185 7 -5 9 8 38 31 70 6 8 19
40 28 70 24 75 56 143 77 157 18 14 32 53 18 53 -5 0 -9 -7 -9 -14z m-70 -111
c-7 -9 -15 -13 -17 -11 -7 7 7 26 19 26 6 0 6 -6 -2 -15z m-110 -213 c0 -4 -9
-8 -20 -9 -11 -1 -18 2 -15 8 7 11 35 12 35 1z"/>
<path d="M3624 1455 c-4 -11 -8 -22 -10 -25 -1 -3 6 -7 17 -7 20 -2 24 13 9
37 -7 12 -10 11 -16 -5z"/>
<path d="M2116 1419 c10 -11 28 -26 39 -31 14 -8 12 -2 -9 21 -33 34 -61 44
-30 10z"/>
<path d="M3660 1390 c0 -5 5 -10 11 -10 5 0 7 5 4 10 -3 6 -8 10 -11 10 -2 0
-4 -4 -4 -10z"/>
<path d="M3566 1371 c-10 -11 -15 -24 -12 -30 4 -5 -1 -14 -11 -19 -12 -7 -17
-24 -18 -60 -1 -28 3 -49 7 -46 4 3 8 13 8 22 0 11 16 24 40 35 22 9 40 22 40
29 0 9 -3 9 -11 1 -14 -14 -39 -6 -39 12 0 7 16 27 35 44 l36 31 -29 0 c-16 0
-37 -9 -46 -19z"/>
<path d="M3406 1363 c-4 -10 -1 -20 8 -25 8 -5 20 -33 27 -64 16 -71 29 -78
30 -17 3 73 3 77 13 92 7 11 4 13 -12 9 -13 -4 -22 -1 -22 5 0 6 -3 7 -7 4 -3
-4 -12 -2 -18 3 -9 8 -15 6 -19 -7z"/>
<path d="M2480 1319 c-33 -10 -34 -12 -15 -25 10 -8 29 -14 42 -14 13 0 23 -5
23 -11 0 -7 -9 -9 -22 -5 -13 4 -32 10 -43 13 -14 4 -9 -4 15 -25 33 -30 65
-39 123 -34 9 1 17 -3 17 -8 0 -6 -11 -10 -25 -10 -30 0 -33 -15 -4 -30 27
-15 110 -40 132 -40 21 0 23 33 2 54 -9 8 -14 19 -13 23 5 14 -40 81 -65 98
-32 20 -121 28 -167 14z m110 -59 c0 -5 -10 -10 -22 -10 -19 0 -20 2 -8 10 19
13 30 13 30 0z m65 -8 c6 -4 18 -17 28 -29 18 -21 18 -21 -17 -20 -20 1 -30 4
-24 8 9 6 7 13 -6 28 -14 16 -16 21 -5 21 8 0 19 -4 24 -8z"/>
<path d="M3675 1320 c-3 -5 1 -10 10 -10 9 0 13 5 10 10 -3 6 -8 10 -10 10 -2
0 -7 -4 -10 -10z"/>
<path d="M2797 1247 c7 -28 13 -61 13 -72 0 -11 9 -26 19 -32 24 -15 36 -4 13
13 -16 13 -16 13 1 14 31 0 16 50 -17 51 -20 0 -20 1 3 10 23 9 23 10 5 30
-10 12 -26 25 -35 29 -14 8 -15 4 -2 -43z"/>
<path d="M2389 1279 c-15 -9 -17 -8 33 -33 51 -26 63 -16 18 15 -24 18 -42 24
-51 18z"/>
<path d="M3855 1210 c-4 -16 -11 -30 -16 -30 -5 0 -9 -6 -9 -12 0 -7 11 -1 25
14 25 27 33 58 16 58 -5 0 -12 -13 -16 -30z"/>
<path d="M2325 1184 c-3 -25 -5 -47 -3 -49 3 -3 284 -9 303 -6 24 3 -128 70
-193 85 -100 23 -99 23 -107 -30z"/>
<path d="M2887 1180 c9 -16 20 -30 24 -30 10 0 -2 44 -15 52 -23 16 -26 7 -9
-22z"/>
<path d="M3378 1147 c5 -20 26 -18 30 4 1 9 -5 15 -16 15 -13 0 -18 -6 -14
-19z"/>
<path d="M2320 1105 c0 -2 17 -9 39 -15 30 -8 46 -7 72 5 34 14 34 14 -38 15
-40 0 -73 -2 -73 -5z"/>
<path d="M2545 1100 c29 -12 195 -12 195 0 0 6 -42 10 -107 9 -70 0 -101 -3
-88 -9z"/>
<path d="M3570 1084 c0 -8 7 -14 15 -14 8 0 15 -4 15 -9 0 -5 -7 -11 -15 -15
-8 -3 -15 0 -15 6 0 6 -2 9 -5 6 -10 -9 17 -58 32 -58 7 0 16 14 20 31 4 20 8
26 14 18 4 -7 3 -21 -2 -30 -5 -10 -9 -22 -9 -28 0 -16 52 -8 72 11 15 15 16
22 5 54 -13 36 -14 37 -70 39 -44 2 -57 0 -57 -11z"/>
<path d="M3701 1084 c0 -12 6 -27 14 -34 13 -10 15 -9 15 9 0 12 -4 20 -9 16
-5 -3 -12 3 -14 12 -4 15 -5 14 -6 -3z"/>
<path d="M3425 1040 c3 -5 13 -10 21 -10 8 0 14 5 14 10 0 6 -9 10 -21 10 -11
0 -17 -4 -14 -10z"/>
<path d="M3580 970 c19 -13 30 -13 30 0 0 6 -10 10 -22 10 -19 0 -20 -2 -8
-10z"/>
<path d="M3660 960 c0 -5 7 -10 16 -10 8 0 12 5 9 10 -3 6 -10 10 -16 10 -5 0
-9 -4 -9 -10z"/>
<path d="M3800 851 c0 -11 5 -23 10 -26 6 -4 10 5 10 19 0 14 -4 26 -10 26 -5
0 -10 -9 -10 -19z"/>
<path d="M3820 547 c4 -41 5 -41 8 -8 2 18 0 37 -5 42 -5 5 -6 -11 -3 -34z"/>
<path d="M3716 401 c-27 -6 -27 -7 -10 -22 33 -27 76 -51 82 -45 3 3 2 6 -3 6
-4 0 -2 6 4 14 9 11 9 19 -1 35 -13 22 -22 23 -72 12z"/>
<path d="M3633 384 c-7 -12 -8 -26 -3 -34 13 -21 22 -7 18 27 -3 27 -4 27 -15
7z"/>
<path d="M3710 330 c0 -13 20 -13 40 0 12 8 9 10 -12 10 -16 0 -28 -4 -28 -10z"/>
</g>
</svg>
